<svg width="192" height="151" viewBox="0 0 192 151" fill="none" xmlns="http://www.w3.org/2000/svg">
<path d="M134.961 131.268L24.0713 148.096L1.45312 34.0145L11.229 32.5637L112.421 17.4231L133.336 123.011L134.961 131.268Z" fill="#FF784B" stroke="#0D0D0D" stroke-width="0.3" stroke-linecap="round" stroke-linejoin="round"/>
<path fill-rule="evenodd" clip-rule="evenodd" d="M133.739 125.055L28.8596 141.259L7.28125 33.1496L11.2301 32.5633L112.422 17.4229L133.337 123.011L133.739 125.055Z" fill="#0D0D0D"/>
<path d="M133.738 125.055L133.804 125.485C133.922 125.467 134.027 125.402 134.095 125.305C134.163 125.208 134.189 125.087 134.166 124.971L133.738 125.055ZM28.8584 141.259L28.4305 141.344C28.4762 141.573 28.6943 141.725 28.9252 141.689L28.8584 141.259ZM7.28012 33.1494L7.21594 32.7185C7.0978 32.7359 6.99203 32.8009 6.92329 32.8985C6.85452 32.9961 6.82883 33.1174 6.85216 33.2345L7.28012 33.1494ZM11.229 32.5631L11.2931 32.994H11.2937L11.229 32.5631ZM112.421 17.4227L112.849 17.3382C112.804 17.1099 112.587 16.9574 112.356 16.9919L112.421 17.4227ZM133.336 123.011L133.764 122.927V122.926L133.336 123.011ZM133.671 124.624L28.7917 140.828L28.9252 141.689L133.804 125.485L133.671 124.624ZM29.2864 141.174L7.70807 33.064L6.85216 33.2345L28.4305 141.344L29.2864 141.174ZM7.34429 33.58L11.2931 32.994L11.1648 32.1325L7.21594 32.7185L7.34429 33.58ZM11.2937 32.994L112.486 17.8534L112.356 16.9919L11.1643 32.1325L11.2937 32.994ZM111.993 17.5072L132.908 123.095L133.764 122.926L112.849 17.3382L111.993 17.5072ZM132.907 123.095L133.31 125.139L134.166 124.971L133.764 122.927L132.907 123.095Z" fill="#0D0D0D"/>
<path d="M145.843 119.255L31.8162 136.458L8.53125 19.8646L122.639 2.90405L145.843 119.255Z" fill="#FFDF0D" stroke="#0D0D0D" stroke-width="0.3" stroke-linejoin="round"/>
<mask id="mask0_935_4215" style="mask-type:alpha" maskUnits="userSpaceOnUse" x="8" y="2" width="138" height="135">
<path d="M145.843 118.965L31.8162 136.169L8.53125 19.575L122.639 2.6145L145.843 118.965Z" fill="#FFDF0D"/>
</mask>
<g mask="url(#mask0_935_4215)">
<path d="M79.9979 128.931L135.271 37.4212L123.634 7.25952L42.1797 136.19L79.9979 128.931Z" fill="white"/>
<path d="M53.4258 82.3448L37.687 84.6905L34.6953 69.7792L50.4614 67.4065L53.4258 82.3448Z" fill="white" stroke="#0D0D0D" stroke-width="0.3" stroke-linecap="round" stroke-linejoin="round"/>
<path d="M59.3909 112.217L43.6519 114.536L40.6875 99.6245L56.4263 97.2788L59.3909 112.217Z" fill="white" stroke="#0D0D0D" stroke-width="0.3" stroke-linecap="round" stroke-linejoin="round"/>
<path d="M126.39 102.248L66.7222 111.092L63.7578 96.181L123.399 87.3364L126.39 102.248Z" stroke="#0D0D0D" stroke-width="0.3" stroke-linejoin="round"/>
<path d="M120.429 72.3713L60.7615 81.2426L57.7969 66.3583L117.438 57.4871L120.429 72.3713Z" stroke="#0D0D0D" stroke-width="0.3" stroke-linejoin="round"/>
<path d="M114.476 42.5686L54.8081 51.4129L51.8438 36.5016L111.484 27.6035L114.476 42.5686Z" stroke="#0D0D0D" stroke-width="0.3" stroke-linejoin="round"/>
<path d="M47.4804 52.5194L31.7414 54.8381L28.75 39.9269L44.5158 37.6082L47.4804 52.5194Z" fill="white" stroke="#0D0D0D" stroke-width="0.3" stroke-linecap="round" stroke-linejoin="round"/>
</g>
<path fill-rule="evenodd" clip-rule="evenodd" d="M132.227 27.5525C125.552 30.5169 119.881 35.3562 115.9 41.4827C111.92 47.609 109.803 54.7597 109.805 62.0666C109.857 71.9142 113.731 81.3563 120.61 88.3999C127.489 95.4434 136.834 99.537 146.673 99.8166L132.227 27.5525Z" fill="#0D0D0D" stroke="#0D0D0D" stroke-width="0.3" stroke-linecap="round" stroke-linejoin="round"/>
<path fill-rule="evenodd" clip-rule="evenodd" d="M152.55 18.1151C162.586 18.1006 172.219 22.0645 179.341 29.1394C186.463 36.2143 190.493 45.824 190.55 55.8652C190.529 65.9319 186.515 75.5788 179.39 82.6871C172.265 89.7955 162.612 93.7839 152.55 93.7766C142.484 93.7909 132.824 89.8059 125.693 82.6967C118.562 75.5875 114.545 65.9366 114.523 55.8652C114.58 45.8193 118.614 36.2056 125.742 29.1298C132.87 22.0542 142.509 18.0935 152.55 18.1151Z" fill="white" stroke="#0D0D0D" stroke-width="0.3" stroke-linecap="round" stroke-linejoin="round"/>
<path d="M152.543 27.201C156.33 27.194 160.081 27.933 163.582 29.3765C167.084 30.8197 170.266 32.939 172.949 35.6131C175.632 38.2873 177.762 41.4641 179.217 44.9618C180.673 48.4597 181.426 52.2098 181.433 55.9987C181.429 59.79 180.68 63.5432 179.225 67.0441C177.771 70.5449 175.642 73.7246 172.959 76.4017C170.275 79.0788 167.091 81.2003 163.588 82.6453C160.085 84.0905 156.332 84.8307 152.543 84.8237C148.751 84.8345 144.995 84.0969 141.489 82.6534C137.983 81.2099 134.795 79.0886 132.109 76.4113C129.423 73.7339 127.291 70.5531 125.835 67.0504C124.38 63.5478 123.628 59.792 123.625 55.9987C123.632 52.2074 124.386 48.4551 125.843 44.9557C127.301 41.4559 129.433 38.2783 132.119 35.6038C134.804 32.9291 137.99 30.8107 141.495 29.369C145 27.927 148.753 27.1904 152.543 27.201Z" fill="#044BCA" stroke="#0D0D0D" stroke-width="0.3" stroke-linecap="round" stroke-linejoin="round"/>
<path d="M170.437 43.9688V54.2188C170.438 54.4717 170.364 54.7192 170.224 54.9301C170.085 55.141 169.886 55.3059 169.652 55.4039C169.494 55.4667 169.326 55.4993 169.156 55.5C168.816 55.4986 168.489 55.3667 168.243 55.1316L164.031 50.9035L154.694 60.2566C154.451 60.4972 154.123 60.6322 153.781 60.6322C153.439 60.6322 153.111 60.4972 152.868 60.2566L147.375 54.7473L136.756 65.3816C136.51 65.6167 136.184 65.7486 135.843 65.75C135.504 65.7454 135.178 65.614 134.93 65.3816C134.69 65.1387 134.555 64.8106 134.555 64.4688C134.555 64.1269 134.69 63.7988 134.93 63.5559L146.462 52.0246C146.705 51.784 147.033 51.649 147.375 51.649C147.717 51.649 148.045 51.784 148.288 52.0246L153.781 57.534L162.221 49.0938L157.993 44.8816C157.819 44.6964 157.701 44.4657 157.653 44.2163C157.605 43.9669 157.628 43.7089 157.721 43.4723C157.82 43.2403 157.986 43.0425 158.196 42.9031C158.407 42.7637 158.653 42.6888 158.906 42.6875H169.156C169.496 42.6875 169.822 42.8225 170.062 43.0628C170.302 43.3031 170.437 43.6289 170.437 43.9688Z" fill="white"/>
</svg>
