<?xml version="1.0" encoding="utf-8" ?>
<svg xmlns="http://www.w3.org/2000/svg">

    <symbol viewBox="0 0 20 20" fill="none" id="connect-wallet-black">
    <path
      d="M16 5.99999H3.5V5.49999L14.5 4.61999V5.49999H16V3.99999C16 2.89999 15.109 2.12799 14.021 2.28299L3.98 3.71699C2.891 3.87299 2 4.89999 2 5.99999V16C2 16.5304 2.21071 17.0391 2.58579 17.4142C2.96086 17.7893 3.46957 18 4 18H16C16.5304 18 17.0391 17.7893 17.4142 17.4142C17.7893 17.0391 18 16.5304 18 16V7.99999C18 7.46955 17.7893 6.96085 17.4142 6.58577C17.0391 6.2107 16.5304 5.99999 16 5.99999ZM14.5 13.006C14.303 13.0059 14.1078 12.967 13.9258 12.8916C13.7438 12.8161 13.5784 12.7055 13.4391 12.5661C13.2998 12.4268 13.1894 12.2613 13.114 12.0792C13.0387 11.8972 12.9999 11.702 13 11.505C13.0001 11.3079 13.0389 11.1128 13.1144 10.9308C13.1899 10.7488 13.3005 10.5834 13.4398 10.4441C13.5792 10.3048 13.7447 10.1944 13.9267 10.119C14.1088 10.0437 14.304 10.0049 14.501 10.005C14.899 10.0051 15.2806 10.1633 15.5619 10.4448C15.8432 10.7263 16.0011 11.108 16.001 11.506C16.0009 11.9039 15.8427 12.2855 15.5612 12.5669C15.2797 12.8482 14.898 13.0061 14.5 13.006Z"
      fill="currentColor"
    />
    </symbol>

    <symbol viewBox="0 0 280 280" fill="none" id="homepage-image-icon">
    <path
      d="M242.529 225.774C259.112 214.422 267.467 194.424 264.36 173.215C262.717 162.083 258.074 151.594 250.918 142.848C253.696 140.836 255.956 138.203 257.514 135.166C259.071 132.128 259.883 128.77 259.883 125.364C259.877 120.356 258.123 115.504 254.917 111.629C251.71 107.754 247.249 105.093 242.287 104.097C244.816 101.002 246.195 97.1428 246.194 93.1637C246.194 93.1054 246.194 93.0419 246.194 92.9779C246.194 92.9139 246.194 92.8555 246.194 92.7915C246.195 89.1201 245.025 85.5422 242.852 82.566C240.678 79.5898 237.611 77.3677 234.087 76.2147C234.043 71.6136 232.165 67.2153 228.86 63.9768C225.554 60.7382 221.09 58.9218 216.438 58.9218H216.126C211.473 58.9218 207.01 60.7382 203.704 63.9768C200.399 67.2153 198.521 71.6136 198.477 76.2147C197.479 76.5467 196.512 76.9654 195.589 77.4657C190.399 71.4261 183.708 66.8272 176.175 64.1235L175.698 63.9547L175.375 63.8385H175.298H175.228L161.562 59.4686L161.326 59.3932C160.685 59.1779 160.044 58.9683 159.403 58.8113L158.726 58.6306C153.495 57.2346 148.057 56.7564 142.66 57.217C141.308 54.6714 139.344 52.4935 136.942 50.8748C135.619 47.6601 133.356 44.9082 130.444 42.9711C127.532 41.034 124.102 39.9994 120.593 40C117.084 39.9994 113.654 41.034 110.742 42.9711C107.829 44.9082 105.567 47.6601 104.244 50.8748C102.637 51.9609 101.22 53.2992 100.05 54.8374L96.3907 51.7241L96.2789 51.6255C95.9495 51.3405 95.62 51.0436 95.2785 50.7875L95.22 50.7411L94.855 50.4618C89.8313 46.6402 83.799 44.3331 77.4826 43.817C77.1766 43.7881 76.8947 43.7705 76.5766 43.7586C56.7924 42.4555 34.6083 56.7802 24.6308 77.4419C16.0888 95.1303 19.0003 113.517 31.8017 123.496L36.332 127.365C34.4771 129.003 32.9935 131.01 31.9793 133.256C30.965 135.501 30.4436 137.934 30.4487 140.393C30.4682 141.656 30.2688 142.913 29.8603 144.111C25.715 144.767 21.9422 146.863 19.2186 150.023C16.495 153.182 14.9989 157.199 15 161.351V161.828C15.0006 165.98 16.4967 169.994 19.2203 173.153C21.9439 176.312 25.7161 178.407 29.8603 179.063C30.2682 180.26 30.4677 181.517 30.4487 182.781C30.4482 186.278 31.5106 189.696 33.4972 192.589C35.4839 195.483 38.3038 197.719 41.5912 199.008C41.5133 199.679 41.4737 200.353 41.4732 201.028C41.472 204.454 42.4914 207.805 44.4025 210.663C46.3135 213.52 49.0331 215.759 52.2214 217.098C53.0036 221.074 55.1593 224.657 58.3189 227.233C61.4786 229.81 65.4462 231.219 69.541 231.22C73.637 231.22 77.6052 229.811 80.766 227.235C83.9274 224.658 86.0837 221.075 86.8659 217.098C89.4158 216.023 91.6747 214.371 93.4602 212.273C95.2452 210.176 96.507 207.693 97.1436 205.025C99.1447 206.238 101.24 207.292 103.409 208.178C103.644 208.278 103.885 208.371 104.132 208.463C105.639 209.048 107.177 209.548 108.739 209.965L121.511 214.073C121.846 214.201 122.187 214.329 122.529 214.439L122.682 214.492C123.651 214.806 124.648 215.036 125.658 215.178C126.729 215.399 127.811 215.585 128.894 215.76C128.79 216.611 128.737 217.469 128.735 218.326C128.741 224.073 131.052 229.582 135.16 233.645C139.268 237.708 144.839 239.994 150.649 240C154.8 239.996 158.865 238.828 162.372 236.631C165.88 234.435 168.685 231.299 170.463 227.589C180.723 235.415 192.818 239.633 205.172 239.633C206.06 239.633 206.937 239.633 207.843 239.569C214.108 239.275 220.263 237.835 225.997 235.322C226.533 235.083 227.057 234.822 227.562 234.537L236.94 229.253C238.311 228.561 239.652 227.798 240.952 226.984C241.501 226.611 242.027 226.207 242.529 225.774Z"
      fill="#396AF4"
    />
    <path
      d="M241.681 224.536L241.612 224.584L241.548 224.639C241.098 225.027 240.625 225.391 240.131 225.728C238.875 226.514 237.582 227.249 236.264 227.914L236.233 227.93L236.204 227.946L226.826 233.23L226.826 233.23C226.365 233.49 225.885 233.73 225.392 233.95C219.827 236.388 213.853 237.785 207.772 238.071L207.755 238.072L207.737 238.073C206.892 238.133 206.068 238.133 205.172 238.133C193.165 238.133 181.386 234.034 171.372 226.397L169.907 225.279L169.11 226.941C167.455 230.393 164.844 233.313 161.576 235.36L161.576 235.36C158.309 237.407 154.52 238.496 150.649 238.5C145.231 238.494 140.041 236.362 136.215 232.578L136.215 232.578C132.39 228.796 130.242 223.67 130.235 218.327C130.237 217.531 130.286 216.733 130.383 215.941L130.557 214.509L129.133 214.279C128.059 214.106 127.001 213.924 125.962 213.709L125.915 213.7L125.868 213.693C124.947 213.563 124.039 213.354 123.157 213.069L123.017 213.021L123.004 213.016L122.99 213.012C122.689 212.915 122.38 212.799 122.046 212.671L122.009 212.657L121.97 212.645L109.198 208.537L109.162 208.525L109.125 208.515C107.616 208.113 106.13 207.629 104.675 207.065L104.667 207.062L104.66 207.06C104.419 206.969 104.2 206.884 103.992 206.796L103.984 206.793L103.976 206.79C101.879 205.933 99.8549 204.914 97.9212 203.742L96.1621 202.676L95.6846 204.677C95.1031 207.114 93.9502 209.383 92.3181 211.301C90.6852 213.219 88.6183 214.732 86.2833 215.716L85.548 216.026L85.3941 216.809C84.6799 220.44 82.7104 223.715 79.8184 226.072C76.9264 228.429 73.2934 229.72 69.5415 229.72C65.7901 229.719 62.1576 228.428 59.2669 226.07L59.2668 226.07C56.3764 223.714 54.4074 220.439 53.6932 216.808L53.5389 216.025L52.8023 215.715C49.8834 214.489 47.396 212.44 45.6494 209.829C43.9028 207.217 42.9723 204.156 42.9732 201.029C42.9737 200.412 43.0098 199.795 43.0812 199.182L43.2146 198.034L42.139 197.612C39.1288 196.431 36.5496 194.385 34.7338 191.74C32.92 189.099 31.9503 185.981 31.9487 182.791C31.9688 181.359 31.7421 179.935 31.2801 178.579L30.9883 177.723L30.0948 177.581C26.2987 176.98 22.8467 175.062 20.3563 172.173C17.8664 169.286 16.5006 165.618 16.5 161.828C16.5 161.828 16.5 161.828 16.5 161.828L16.5 161.351L16.5 161.351C16.499 157.56 17.8647 153.891 20.3548 151.002C22.8452 148.113 26.2977 146.193 30.0945 145.593L30.9879 145.451L31.2799 144.595C31.7428 143.238 31.9696 141.813 31.9487 140.38C31.9454 138.139 32.4213 135.921 33.3463 133.873C34.2727 131.822 35.6283 129.987 37.3249 128.489L38.6195 127.346L37.3061 126.224L32.7758 122.355L32.7503 122.333L32.7238 122.313C20.6232 112.88 17.6601 95.3257 25.9816 78.0942L25.9816 78.0942C35.7444 57.8771 57.4133 43.9997 76.4781 45.2554L76.4993 45.2568L76.5206 45.2576C76.8143 45.2686 77.0676 45.2845 77.3416 45.3104L77.351 45.3112L77.3604 45.312C83.3922 45.8049 89.1509 48.0078 93.9455 51.6546C93.9459 51.6549 93.9464 51.6553 93.9468 51.6556L94.2976 51.924L94.3452 51.9618L94.3617 51.975L94.3785 51.9876C94.6075 52.1593 94.8255 52.3491 95.0887 52.5784C95.1534 52.6348 95.2208 52.6935 95.2919 52.755C95.2938 52.7566 95.2957 52.7583 95.2977 52.76L95.3984 52.8489L95.4085 52.8578L95.4187 52.8665L99.078 55.9799L100.285 57.0065L101.244 55.7455C102.314 54.3381 103.612 53.1126 105.084 52.1175L105.459 51.8641L105.631 51.4457C106.84 48.5092 108.907 45.9927 111.572 44.22C114.237 42.4473 117.378 41.4995 120.593 41.5H120.593C123.808 41.4995 126.949 42.4473 129.614 44.22C132.279 45.9927 134.346 48.5092 135.555 51.4457L135.727 51.8652L136.104 52.1187C138.303 53.6007 140.099 55.5935 141.335 57.9207L141.8 58.7958L142.788 58.7116C148.012 58.2657 153.276 58.7286 158.339 60.0798C158.339 60.0798 158.339 60.0798 158.339 60.0799L159.016 60.2605L159.031 60.2646L159.046 60.2683C159.62 60.4087 160.208 60.5999 160.849 60.8152L160.859 60.8186L160.869 60.8219L161.105 60.8972L161.105 60.8973L174.771 65.2673L174.994 65.3385H175.114L175.191 65.3663L175.198 65.3686L175.668 65.5353C175.67 65.5357 175.671 65.5361 175.672 65.5365C182.96 68.1531 189.432 72.6024 194.451 78.4433L195.239 79.3608L196.303 78.7847C197.15 78.3262 198.036 77.9424 198.951 77.6381L199.967 77.3L199.977 76.2289C200.017 72.0284 201.732 68.0097 204.754 65.0482C207.777 62.0861 211.864 60.4218 216.126 60.4218H216.438C220.7 60.4218 224.787 62.0861 227.81 65.0482C230.832 68.0097 232.547 72.0284 232.587 76.2289L232.597 77.3056L233.62 77.6404C236.848 78.6963 239.654 80.7302 241.64 83.4506C243.627 86.171 244.695 89.4392 244.694 92.791V92.7915V92.7919V92.7923V92.7926V92.793V92.7934V92.7938V92.7941V92.7945V92.7949V92.7952V92.7956V92.796V92.7964V92.7967V92.7971V92.7975V92.7979V92.7982V92.7986V92.799V92.7994V92.7997V92.8001V92.8005V92.8008V92.8012V92.8016V92.802V92.8023V92.8027V92.8031V92.8034V92.8038V92.8042V92.8046V92.8049V92.8053V92.8057V92.806V92.8064V92.8068V92.8072V92.8075V92.8079V92.8083V92.8086V92.809V92.8094V92.8097V92.8101V92.8105V92.8108V92.8112V92.8116V92.812V92.8123V92.8127V92.8131V92.8134V92.8138V92.8142V92.8145V92.8149V92.8153V92.8156V92.816V92.8164V92.8167V92.8171V92.8175V92.8178V92.8182V92.8186V92.8189V92.8193V92.8197V92.82V92.8204V92.8208V92.8211V92.8215V92.8219V92.8222V92.8226V92.823V92.8233V92.8237V92.8241V92.8244V92.8248V92.8252V92.8255V92.8259V92.8263V92.8266V92.827V92.8274V92.8277V92.8281V92.8285V92.8288V92.8292V92.8295V92.8299V92.8303V92.8306V92.831V92.8314V92.8317V92.8321V92.8325V92.8328V92.8332V92.8335V92.8339V92.8343V92.8346V92.835V92.8354V92.8357V92.8361V92.8365V92.8368V92.8372V92.8375V92.8379V92.8383V92.8386V92.839V92.8394V92.8397V92.8401V92.8404V92.8408V92.8412V92.8415V92.8419V92.8423V92.8426V92.843V92.8433V92.8437V92.8441V92.8444V92.8448V92.8452V92.8455V92.8459V92.8462V92.8466V92.847V92.8473V92.8477V92.848V92.8484V92.8488V92.8491V92.8495V92.8498V92.8502V92.8506V92.8509V92.8513V92.8517V92.852V92.8524V92.8527V92.8531V92.8535V92.8538V92.8542V92.8545V92.8549V92.8553V92.8556V92.856V92.8563V92.8567V92.8571V92.8574V92.8578V92.8581V92.8585V92.8589V92.8592V92.8596V92.8599V92.8603V92.8607V92.861V92.8614V92.8617V92.8621V92.8625V92.8628V92.8632V92.8635V92.8639V92.8643V92.8646V92.865V92.8653V92.8657V92.866V92.8664V92.8668V92.8671V92.8675V92.8678V92.8682V92.8686V92.8689V92.8693V92.8696V92.87V92.8704V92.8707V92.8711V92.8714V92.8718V92.8722V92.8725V92.8729V92.8732V92.8736V92.8739V92.8743V92.8747V92.875V92.8754V92.8757V92.8761V92.8765V92.8768V92.8772V92.8775V92.8779V92.8783V92.8786V92.879V92.8793V92.8797V92.88V92.8804V92.8808V92.8811V92.8815V92.8818V92.8822V92.8826V92.8829V92.8833V92.8836V92.884V92.8843V92.8847V92.8851V92.8854V92.8858V92.8861V92.8865V92.8869V92.8872V92.8876V92.8879V92.8883V92.8886V92.889V92.8894V92.8897V92.8901V92.8904V92.8908V92.8912V92.8915V92.8919V92.8922V92.8926V92.8929V92.8933V92.8937V92.894V92.8944V92.8947V92.8951V92.8955V92.8958V92.8962V92.8965V92.8969V92.8973V92.8976V92.898V92.8983V92.8987V92.899V92.8994V92.8998V92.9001V92.9005V92.9008V92.9012V92.9016V92.9019V92.9023V92.9026V92.903V92.9034V92.9037V92.9041V92.9044V92.9048V92.9052V92.9055V92.9059V92.9062V92.9066V92.907V92.9073V92.9077V92.908V92.9084V92.9087V92.9091V92.9095V92.9098V92.9102V92.9105V92.9109V92.9113V92.9116V92.912V92.9123V92.9127V92.9131V92.9134V92.9138V92.9141V92.9145V92.9149V92.9152V92.9156V92.916V92.9163V92.9167V92.917V92.9174V92.9178V92.9181V92.9185V92.9188V92.9192V92.9196V92.9199V92.9203V92.9206V92.921V92.9214V92.9217V92.9221V92.9224V92.9228V92.9232V92.9235V92.9239V92.9243V92.9246V92.925V92.9253V92.9257V92.9261V92.9264V92.9268V92.9271V92.9275V92.9279V92.9282V92.9286V92.929V92.9293V92.9297V92.93V92.9304V92.9308V92.9311V92.9315V92.9319V92.9322V92.9326V92.9329V92.9333V92.9337V92.934V92.9344V92.9348V92.9351V92.9355V92.9359V92.9362V92.9366V92.9369V92.9373V92.9377V92.938V92.9384V92.9388V92.9391V92.9395V92.9399V92.9402V92.9406V92.941V92.9413V92.9417V92.942V92.9424V92.9428V92.9431V92.9435V92.9439V92.9442V92.9446V92.945V92.9453V92.9457V92.9461V92.9464V92.9468V92.9472V92.9475V92.9479V92.9483V92.9486V92.949V92.9494V92.9497V92.9501V92.9505V92.9508V92.9512V92.9516V92.9519V92.9523V92.9527V92.953V92.9534V92.9538V92.9541V92.9545V92.9549V92.9552V92.9556V92.956V92.9563V92.9567V92.9571V92.9575V92.9578V92.9582V92.9586V92.9589V92.9593V92.9597V92.96V92.9604V92.9608V92.9611V92.9615V92.9619V92.9623V92.9626V92.963V92.9634V92.9637V92.9641V92.9645V92.9648V92.9652V92.9656V92.966V92.9663V92.9667V92.9671V92.9674V92.9678V92.9682V92.9686V92.9689V92.9693V92.9697V92.9701V92.9704V92.9708V92.9712V92.9715V92.9719V92.9723V92.9727V92.973V92.9734V92.9738V92.9742V92.9745V92.9749V92.9753V92.9757V92.976V92.9764V92.9768V92.9771V92.9775V92.9779V92.9783V92.9787V92.979V92.9794V92.9798V92.9802V92.9805V92.9809V92.9813V92.9817V92.982V92.9824V92.9828V92.9832V92.9835V92.9839V92.9843V92.9847V92.985V92.9854V92.9858V92.9862V92.9865V92.9869V92.9873V92.9877V92.988V92.9884V92.9888V92.9892V92.9895V92.9899V92.9903V92.9906V92.991V92.9914V92.9918V92.9921V92.9925V92.9929V92.9933V92.9936V92.994V92.9944V92.9948V92.9951V92.9955V92.9959V92.9963V92.9966V92.997V92.9974V92.9978V92.9981V92.9985V92.9989V92.9993V92.9996V93V93.0004V93.0008V93.0011V93.0015V93.0019V93.0023V93.0026V93.003V93.0034V93.0037V93.0041V93.0045V93.0049V93.0052V93.0056V93.006V93.0064V93.0067V93.0071V93.0075V93.0079V93.0082V93.0086V93.009V93.0093V93.0097V93.0101V93.0105V93.0108V93.0112V93.0116V93.012V93.0123V93.0127V93.0131V93.0135V93.0138V93.0142V93.0146V93.0149V93.0153V93.0157V93.0161V93.0164V93.0168V93.0172V93.0176V93.0179V93.0183V93.0187V93.019V93.0194V93.0198V93.0202V93.0205V93.0209V93.0213V93.0217V93.022V93.0224V93.0228V93.0231V93.0235V93.0239V93.0243V93.0246V93.025V93.0254V93.0257V93.0261V93.0265V93.0269V93.0272V93.0276V93.028V93.0283V93.0287V93.0291V93.0295V93.0298V93.0302V93.0306V93.0309V93.0313V93.0317V93.0321V93.0324V93.0328V93.0332V93.0335V93.0339V93.0343V93.0347V93.035V93.0354V93.0358V93.0361V93.0365V93.0369V93.0373V93.0376V93.038V93.0384V93.0387V93.0391V93.0395V93.0398V93.0402V93.0406V93.041V93.0413V93.0417V93.0421V93.0424V93.0428V93.0432V93.0435V93.0439V93.0443V93.0447V93.045V93.0454V93.0458V93.0461V93.0465V93.0469V93.0472V93.0476V93.048V93.0483V93.0487V93.0491V93.0494V93.0498V93.0502V93.0506V93.0509V93.0513V93.0517V93.052V93.0524V93.0528V93.0531V93.0535V93.0539V93.0542V93.0546V93.055V93.0553V93.0557V93.0561V93.0564V93.0568V93.0572V93.0576V93.0579V93.0583V93.0587V93.059V93.0594V93.0598V93.0601V93.0605V93.0609V93.0612V93.0616V93.062V93.0623V93.0627V93.0631V93.0634V93.0638V93.0642V93.0645V93.0649V93.0653V93.0656V93.066V93.0664V93.0667V93.0671V93.0675V93.0678V93.0682V93.0686V93.0689V93.0693V93.0697V93.07V93.0704V93.0708V93.0711V93.0715V93.0718V93.0722V93.0726V93.0729V93.0733V93.0737V93.074V93.0744V93.0748V93.0751V93.0755V93.0759V93.0762V93.0766V93.077V93.0773V93.0777V93.0781V93.0784V93.0788V93.0791V93.0795V93.0799V93.0802V93.0806V93.081V93.0813V93.0817V93.0821V93.0824V93.0828V93.0831V93.0835V93.0839V93.0842V93.0846V93.085V93.0853V93.0857V93.0861V93.0864V93.0868V93.0871V93.0875V93.0879V93.0882V93.0886V93.089V93.0893V93.0897V93.09V93.0904V93.0908V93.0911V93.0915V93.0918V93.0922V93.0926V93.0929V93.0933V93.0937V93.094V93.0944V93.0947V93.0951V93.0955V93.0958V93.0962V93.0965V93.0969V93.0973V93.0976V93.098V93.0983V93.0987V93.0991V93.0994V93.0998V93.1001V93.1005V93.1009V93.1012V93.1016V93.1019V93.1023V93.1027V93.103V93.1034V93.1037V93.1041V93.1045V93.1048V93.1052V93.1055V93.1059V93.1062V93.1066V93.107V93.1073V93.1077V93.108V93.1084V93.1087V93.1091V93.1095V93.1098V93.1102V93.1105V93.1109V93.1113V93.1116V93.112V93.1123V93.1127V93.113V93.1134V93.1138V93.1141V93.1145V93.1148V93.1152V93.1155V93.1159V93.1162V93.1166V93.117V93.1173V93.1177V93.118V93.1184V93.1187V93.1191V93.1194V93.1198V93.1202V93.1205V93.1209V93.1212V93.1216V93.1219V93.1223V93.1226V93.123V93.1233V93.1237V93.1241V93.1244V93.1248V93.1251V93.1255V93.1258V93.1262V93.1265V93.1269V93.1272V93.1276V93.1279V93.1283V93.1286V93.129V93.1294V93.1297V93.1301V93.1304V93.1308V93.1311V93.1315V93.1318V93.1322V93.1325V93.1329V93.1332V93.1336V93.1339V93.1343V93.1346V93.135V93.1353V93.1357V93.136V93.1364V93.1367V93.1371V93.1374V93.1378V93.1381V93.1385V93.1388V93.1392V93.1395V93.1399V93.1402V93.1406V93.1409V93.1413V93.1416V93.142V93.1423V93.1427V93.143V93.1434V93.1437V93.1441V93.1444V93.1448V93.1451V93.1455V93.1458V93.1462V93.1465V93.1469V93.1472V93.1475V93.1479V93.1482V93.1486V93.1489V93.1493V93.1496V93.15V93.1503V93.1507V93.151V93.1514V93.1517V93.1521V93.1524V93.1527V93.1531V93.1534V93.1538V93.1541V93.1545V93.1548V93.1552V93.1555V93.1558V93.1562V93.1565V93.1569V93.1572V93.1576V93.1579V93.1583V93.1586V93.1589V93.1593V93.1596V93.16V93.1603V93.1607V93.161V93.1613V93.1617V93.162V93.1624V93.1627V93.1631V93.1634V93.1637V93.1642C244.695 96.7956 243.437 100.32 241.126 103.148L239.549 105.077L241.992 105.568C246.619 106.496 250.775 108.977 253.761 112.586C256.746 116.193 258.378 120.708 258.383 125.365C258.383 128.532 257.628 131.655 256.179 134.481C254.729 137.308 252.626 139.759 250.038 141.633L248.749 142.567L249.757 143.798C256.742 152.335 261.273 162.571 262.876 173.434C265.905 194.119 257.757 213.532 241.681 224.536Z"
      stroke="black"
      stroke-width="3"
      stroke-miterlimit="10"
    />
    <path
      d="M47.7021 143.565H47.3305C47.3305 154.169 41.9633 163.624 33 163.624V164.086C41.9633 164.086 47.3305 173.53 47.3305 184.146H47.7021C47.7021 173.541 53.0747 164.086 62.0326 164.086V163.624C53.0747 163.624 47.7021 154.174 47.7021 143.565Z"
      fill="#396AF4"
    />
    <path
      d="M47.7021 143.565H47.3305C47.3305 154.169 41.9633 163.624 33 163.624V164.086C41.9633 164.086 47.3305 173.53 47.3305 184.146H47.7021C47.7021 173.541 53.0747 164.086 62.0326 164.086V163.624C53.0747 163.624 47.7021 154.174 47.7021 143.565Z"
      stroke="black"
      stroke-width="3"
      stroke-linecap="round"
      stroke-linejoin="round"
    />
    <path
      d="M215.773 72.2328H215.388C215.388 83.9492 210.326 93.1495 200.406 93.1495V93.628C210.283 93.628 215.388 102.733 215.388 114.545H215.773C215.773 102.785 220.797 93.628 230.755 93.628V93.1495C220.839 93.1495 215.773 84.0395 215.773 72.2328Z"
      fill="#396AF4"
    />
    <path
      d="M215.773 72.2328H215.388C215.388 83.9492 210.326 93.1495 200.406 93.1495V93.628C210.283 93.628 215.388 102.733 215.388 114.545H215.773C215.773 102.785 220.797 93.628 230.755 93.628V93.1495C220.839 93.1495 215.773 84.0395 215.773 72.2328Z"
      stroke="black"
      stroke-width="3"
      stroke-linecap="round"
      stroke-linejoin="round"
    />
    <path
      d="M119.855 54V75.7435M111.54 64.8688H128.171H111.54Z"
      stroke="black"
      stroke-width="3"
      stroke-linecap="round"
      stroke-linejoin="round"
    />
    <path
      d="M74.2513 134.734C74.7039 134.734 75.0711 134.36 75.0711 133.9C75.0711 133.44 74.7039 133.066 74.2513 133.066C73.7987 133.066 73.4314 133.44 73.4314 133.9C73.4314 134.36 73.7987 134.734 74.2513 134.734Z"
      stroke="black"
      stroke-width="3"
      stroke-linecap="round"
      stroke-linejoin="round"
    />
    <path
      d="M58.5966 194.484L78.928 214.331M61.5401 212.05L75.9804 196.76L61.5401 212.05Z"
      stroke="black"
      stroke-width="3"
      stroke-linecap="round"
      stroke-linejoin="round"
    />
    <path
      d="M149.871 225.994C151.951 225.994 153.637 224.279 153.637 222.163C153.637 220.048 151.951 218.333 149.871 218.333C147.791 218.333 146.104 220.048 146.104 222.163C146.104 224.279 147.791 225.994 149.871 225.994Z"
      stroke="black"
      stroke-width="3"
      stroke-linecap="round"
      stroke-linejoin="round"
    />
    <path
      d="M90.1219 69.7905C95.7462 74.8042 96.7518 84.4009 91.8101 94.9187C84.9332 109.565 69.0845 120.525 56.5129 119.353C53.6397 119.146 50.8806 118.122 48.553 116.397L43.0291 111.533C45.3315 113.21 48.0459 114.204 50.8709 114.405C63.4723 115.601 79.3147 104.617 86.1686 89.9709C91.0456 79.5906 90.1277 70.1016 84.6919 65.0402L90.1219 69.7905Z"
      fill="black"
    />
    <path
      d="M90.1219 69.7905C95.7462 74.8042 96.7518 84.4009 91.8101 94.9187C84.9332 109.565 69.0845 120.525 56.5129 119.353C53.6397 119.146 50.8806 118.122 48.553 116.397L43.0291 111.533C45.3315 113.21 48.0459 114.204 50.8709 114.405C63.4723 115.601 79.3147 104.617 86.1686 89.9709C91.0456 79.5906 90.1277 70.1016 84.6919 65.0402L90.1219 69.7905Z"
      stroke="black"
      stroke-width="3"
      stroke-linecap="round"
      stroke-linejoin="round"
    />
    <path
      d="M42.9763 111.533C36.6169 106.746 35.2634 96.737 40.4407 85.7164C47.3182 71.0705 63.1663 60.1099 75.7379 61.2826C78.7766 61.4883 81.683 62.6249 84.0742 64.5433L84.6215 65.0216C90.0572 70.083 90.9746 79.572 86.0976 89.9523C79.2207 104.598 63.3783 115.559 50.8004 114.387C47.9834 114.188 45.2753 113.2 42.9763 111.533Z"
      fill="#F1F333"
    />
    <path
      d="M42.9763 111.533C36.6169 106.746 35.2634 96.737 40.4407 85.7164C47.3182 71.0705 63.1663 60.1099 75.7379 61.2826C78.7766 61.4883 81.683 62.6249 84.0742 64.5433L84.6215 65.0216C90.0572 70.083 90.9746 79.572 86.0976 89.9523C79.2207 104.598 63.3783 115.559 50.8004 114.387C47.9834 114.188 45.2753 113.2 42.9763 111.533Z"
      stroke="black"
      stroke-width="3"
      stroke-linecap="round"
      stroke-linejoin="round"
    />
    <path
      d="M76.7377 85.0232C78.3909 81.2242 78.6504 74.242 70.1198 73.4462C61.831 72.6924 54.4241 78.831 50.6765 86.86C47.035 94.6257 48.0469 101.23 54.7358 101.853C61.4247 102.475 67.6056 97.1587 69.5 94L68.0311 90.7009C65.8015 93.9913 62.6545 97.192 58.9774 96.8512C54.9123 96.4742 54.2121 92.1125 56.5712 87.093C58.9304 82.0736 63.4894 78.2088 67.5544 78.5857C71.361 78.9387 71.4372 82.2827 70.5668 84.4249L76.7377 85.0232Z"
      fill="black"
    />
    <path
      d="M246.11 178.227C248.701 193.928 242.687 208.211 231.742 215.816L228.483 217.809C224.452 219.939 220.034 221.205 215.503 221.527C194.926 223.075 175.2 206.164 171.514 183.828C168.868 167.812 175.183 153.287 186.572 145.786C191.241 142.719 196.6 140.908 202.144 140.521C222.691 138.963 242.447 155.89 246.11 178.227Z"
      fill="#F1F333"
    />
    <path
      d="M246.11 178.227C248.701 193.928 242.687 208.211 231.742 215.816L228.483 217.809C224.452 219.939 220.034 221.205 215.503 221.527C194.926 223.075 175.2 206.164 171.514 183.828C168.868 167.812 175.183 153.287 186.572 145.786C191.241 142.719 196.6 140.908 202.144 140.521C222.691 138.963 242.447 155.89 246.11 178.227Z"
      stroke="black"
      stroke-width="3"
      stroke-linecap="round"
      stroke-linejoin="round"
    />
    <path
      d="M228.524 217.805L218.959 223.648C215.246 225.423 211.241 226.484 207.149 226.776C186.569 228.323 166.84 211.405 163.154 189.073C160.726 174.389 165.83 160.963 175.461 153.043L186.578 145.757L186.579 145.793C175.207 153.295 168.891 167.821 171.519 183.839C175.206 206.178 194.946 223.089 215.514 221.542C220.056 221.219 224.485 219.947 228.524 217.805Z"
      fill="black"
    />
    <path
      d="M228.524 217.805L218.959 223.648C215.246 225.423 211.241 226.484 207.149 226.776C186.569 228.323 166.84 211.405 163.154 189.073C160.726 174.389 165.83 160.963 175.461 153.043L186.578 145.757L186.579 145.793C175.207 153.295 168.891 167.821 171.519 183.839C175.206 206.178 194.946 223.089 215.514 221.542C220.056 221.219 224.485 219.947 228.524 217.805Z"
      stroke="black"
      stroke-width="3"
      stroke-linecap="round"
      stroke-linejoin="round"
    />
    <path
      d="M209.809 200.925C220.738 200.103 225.5 191 225.5 183L219.504 181.853C219.277 187.061 217.545 192.359 211.549 192.81C204.887 193.295 199.568 187.361 198.303 179.701C197.039 172.042 200.291 165.457 206.934 164.954C209.249 164.744 211.562 165.378 213.456 166.743C215.35 168.109 216.702 170.116 217.269 172.405L227.339 171.646C226.145 165.862 219.744 156.007 205.817 157.052C192.324 158.068 186.892 168.575 188.931 180.874C190.889 192.715 198.88 201.747 209.809 200.925Z"
      fill="black"
    />
    <path
      d="M168.912 80.5817C183.331 85.4637 192.662 102.647 191.561 126.309C190.026 159.263 168.83 192.503 144.31 200.406C138.133 202.399 132.326 202.596 127.114 201.244L112.995 196.571C118.131 197.84 123.843 197.624 129.914 195.662C154.434 187.759 175.624 154.518 177.16 121.564C178.248 98.2011 169.171 81.1619 155.064 76.0289L168.912 80.5817Z"
      fill="black"
    />
    <path
      d="M168.912 80.5817C183.331 85.4637 192.662 102.647 191.561 126.309C190.026 159.263 168.83 192.503 144.31 200.406C138.133 202.399 132.326 202.596 127.114 201.244L112.995 196.571C118.131 197.84 123.843 197.624 129.914 195.662C154.434 187.759 175.624 154.518 177.16 121.564C178.248 98.2011 169.171 81.1619 155.064 76.0289L168.912 80.5817Z"
      stroke="black"
      stroke-width="3"
      stroke-linecap="round"
      stroke-linejoin="round"
    />
    <path
      d="M112.99 196.572C97.3763 192.707 87.075 175.033 88.2285 150.229C89.7579 117.275 110.954 84.034 135.474 76.125C142.028 74.0132 148.164 73.9234 153.611 75.5267L155.012 75.9811H155.059C169.177 81.1142 178.243 98.1533 177.155 121.517C175.619 154.47 154.429 187.711 129.909 195.615C123.838 197.624 118.137 197.84 112.99 196.572Z"
      fill="#F1F333"
    />
    <path
      d="M112.99 196.572C97.3763 192.707 87.075 175.033 88.2285 150.229C89.7579 117.275 110.954 84.034 135.474 76.125C142.028 74.0132 148.164 73.9234 153.611 75.5267L155.012 75.9811H155.059C169.177 81.1142 178.243 98.1533 177.155 121.517C175.619 154.47 154.429 187.711 129.909 195.615C123.838 197.624 118.137 197.84 112.99 196.572Z"
      stroke="black"
      stroke-width="3"
      stroke-linecap="round"
      stroke-linejoin="round"
    />
    <path
      d="M155.617 119.961C155.764 111.483 150.846 98.1953 134.245 103.58C118.155 108.761 109.042 126.207 108.189 144.359C107.377 161.829 114.396 173.4 127.415 169.2C140.433 165 148.9 149.887 150 142.451L143.728 137.629C142.122 145.574 138.68 154.099 131.532 156.403C123.62 158.951 118.931 151.353 119.461 140.052C119.99 128.75 125.532 117.855 133.445 115.307C140.851 112.913 143.581 119.124 143.616 123.832L155.617 119.961Z"
      fill="black"
    />
    </symbol>

    <symbol viewBox="0 0 42 22" fill="none" id="cruize-footer-icon">
    <path
      fill-rule="evenodd"
      clip-rule="evenodd"
      d="M14.2344 0.122478C11.5737 0.365963 8.38305 1.1341 6.23267 2.04892L5.71411 2.26947L6.34721 2.38953C6.69545 2.45568 7.38698 2.46137 7.88419 2.40226C8.77681 2.29609 8.79006 2.30112 8.96186 2.79964C9.17322 3.41304 8.95789 3.42275 11.026 2.7077C13.0312 2.01459 14.0134 1.90441 14.2933 2.34147C14.7048 2.98384 14.3641 3.21025 11.7084 4.05943C10.6379 4.40172 9.73002 4.73395 9.69112 4.79776C9.57973 4.97995 10.4929 7.99253 10.6597 7.99287C10.7418 7.99303 11.7235 7.61675 12.8412 7.15675C17.3605 5.29678 23.8727 3.37 27.8825 2.7067C28.88 2.54159 29.6249 2.38401 29.5376 2.35638C29.4504 2.32875 27.2039 1.81448 24.5452 1.21347C19.2586 0.0183187 17.4566 -0.172417 14.2344 0.122478ZM36.6618 2.58161C27.0081 3.43163 14.1447 7.3721 2.02757 13.1915L0 14.1652V16.1031C0 17.1688 0.0637236 18.0407 0.141682 18.0407C0.21964 18.0407 0.983165 17.6718 1.83822 17.2208C4.57999 15.7748 7.17545 15.0692 10.3447 14.9076C12.6719 14.789 14.4058 15.0214 18.124 15.9502C24.999 17.6676 29.4132 17.9448 33.6189 16.9231L34.7138 16.657L37.1775 11.871C38.5324 9.23876 40.1719 6.04599 40.8205 4.77599L42 2.46707L39.6619 2.4952C38.376 2.51077 37.0259 2.54962 36.6618 2.58161ZM23.0845 8.32259C24.0106 9.35782 22.5348 10.8509 21.5116 9.91395C21.1122 9.54839 21.0857 8.7178 21.46 8.29948C21.8268 7.88955 22.7083 7.9021 23.0845 8.32259ZM19.7325 9.76491C19.9738 10.3008 19.6184 11.1463 19.0961 11.2789C18.0942 11.5334 17.3239 10.7891 17.642 9.87393C17.9654 8.94336 19.3304 8.87219 19.7325 9.76491ZM15.9797 10.5813C17.0601 11.6741 15.5656 13.209 14.4519 12.1505C14.2413 11.9503 14.0689 11.6076 14.0689 11.3893C14.0689 10.8984 14.7609 10.1702 15.2275 10.1702C15.4178 10.1702 15.7563 10.3552 15.9797 10.5813ZM9.17985 15.8825C7.1963 16.0937 4.81536 16.7603 3.09895 17.5851C1.67668 18.2685 -0.490424 19.5626 0.248274 19.2875C5.70865 17.2528 10.8474 17.0154 16.4563 18.5384C17.4646 18.8122 18.8481 19.1912 19.5309 19.3806C26.1409 21.2137 33.3005 20.188 37.8618 16.7543C38.8476 16.0121 39.1912 15.5612 38.3727 16.084C37.6325 16.5567 34.925 17.5531 33.3983 17.9148C32.0748 18.2283 31.3686 18.279 28.3032 18.2814C24.2387 18.2845 22.8821 18.0913 17.7767 16.7821C15.1851 16.1176 11.944 15.6276 10.7585 15.7213C10.622 15.732 9.91159 15.8045 9.17985 15.8825ZM6.78615 18.8946C4.80509 19.077 2.79258 19.7078 1.22366 20.638C0.312329 21.1784 0.300908 21.2774 1.18691 20.9612C4.59919 19.7431 8.61858 19.7739 12.993 21.0515C16.8507 22.1783 20.039 22.2974 23.0895 21.4289L24.0826 21.1461L23.3377 21.0275C22.9281 20.9624 21.5129 20.8262 20.1929 20.7249C17.1241 20.4895 16.2394 20.3475 12.9102 19.5562C9.94983 18.8527 8.70316 18.7179 6.78615 18.8946ZM12.993 18.8809C13.715 19.1265 17.5713 19.9116 17.6526 19.8293C17.7632 19.7175 14.4057 18.9077 13.4068 18.8052C12.6549 18.728 12.5829 18.7412 12.993 18.8809Z"
      fill="white"
    />
    </symbol>

    <symbol viewBox="0 0 118 118" fill="none" id="wallet-connected-icon">
    <g filter="url(#filter0_d_948_4359)">
    <path
        d="M77.6002 42.6H38.8502V41.05L72.9502 38.322V41.05H77.6002V36.4C77.6002 32.99 74.8381 30.5968 71.4653 31.0773L40.3382 35.5227C36.9623 36.0063 34.2002 39.19 34.2002 42.6V73.6C34.2002 75.2443 34.8534 76.8213 36.0161 77.984C37.1789 79.1467 38.7559 79.8 40.4002 79.8H77.6002C79.2445 79.8 80.8215 79.1467 81.9843 77.984C83.147 76.8213 83.8002 75.2443 83.8002 73.6V48.8C83.8002 47.1556 83.147 45.5786 81.9843 44.4159C80.8215 43.2532 79.2445 42.6 77.6002 42.6V42.6ZM72.9502 64.3186C72.3393 64.3184 71.7345 64.1978 71.1702 63.9639C70.606 63.7299 70.0933 63.3871 69.6615 62.9551C69.2297 62.523 68.8873 62.0101 68.6537 61.4456C68.4201 60.8812 68.3 60.2763 68.3002 59.6655C68.3004 59.0546 68.4209 58.4498 68.6549 57.8855C68.8888 57.3212 69.2316 56.8086 69.6637 56.3768C70.0958 55.945 70.6087 55.6025 71.1731 55.3689C71.7375 55.1354 72.3424 55.0153 72.9533 55.0155C74.187 55.0159 75.3699 55.5063 76.242 56.379C77.114 57.2516 77.6037 58.4349 77.6033 59.6686C77.6029 60.9022 77.1124 62.0852 76.2398 62.9572C75.3672 63.8293 74.1839 64.319 72.9502 64.3186Z"
        fill="white"
        fill-opacity="0.8"
      />
    <rect
        x="17"
        y="13"
        width="84"
        height="84"
        rx="42"
        stroke="#71E39D"
        stroke-width="2"
      />
    </g>
    <defs>
    <filter
        id="filter0_d_948_4359"
        x="0"
        y="0"
        width="118"
        height="118"
        filterUnits="userSpaceOnUse"
        color-interpolation-filters="sRGB"
      >
    <feFlood flood-opacity="0" result="BackgroundImageFix" />
    <feColorMatrix
          in="SourceAlpha"
          type="matrix"
          values="0 0 0 0 0 0 0 0 0 0 0 0 0 0 0 0 0 0 127 0"
          result="hardAlpha"
        />
    <feOffset dy="4" />
    <feGaussianBlur stdDeviation="8" />
    <feColorMatrix
          type="matrix"
          values="0 0 0 0 0 0 0 0 0 0 0 0 0 0 0 0 0 0 0.12 0"
        />
    <feBlend
          mode="normal"
          in2="BackgroundImageFix"
          result="effect1_dropShadow_948_4359"
        />
    <feBlend
          mode="normal"
          in="SourceGraphic"
          in2="effect1_dropShadow_948_4359"
          result="shape"
        />
    </filter>
    </defs>
    </symbol>

    <symbol viewBox="0 0 20 20" fill="none" id="info-icon">
    <path
      d="M10 17.5C14.1421 17.5 17.5 14.1421 17.5 10C17.5 5.85786 14.1421 2.5 10 2.5C5.85786 2.5 2.5 5.85786 2.5 10C2.5 14.1421 5.85786 17.5 10 17.5Z"
      stroke="white"
      stroke-opacity="0.6"
      stroke-linecap="round"
      stroke-linejoin="round"
    />
    <path
      d="M9.375 9.375H10V13.75H10.625"
      stroke="white"
      stroke-opacity="0.6"
      stroke-linecap="round"
      stroke-linejoin="round"
    />
    <path
      d="M9.84375 7.1875C10.1889 7.1875 10.4688 6.90768 10.4688 6.5625C10.4688 6.21732 10.1889 5.9375 9.84375 5.9375C9.49857 5.9375 9.21875 6.21732 9.21875 6.5625C9.21875 6.90768 9.49857 7.1875 9.84375 7.1875Z"
      fill="white"
      fill-opacity="0.6"
    />
    </symbol>

    <symbol viewBox="0 0 17 27" fill="none" id="eth-asset-icon">
    <path
      d="M8.16703 0V9.81592C8.16703 9.85758 8.12536 9.89925 8.0837 9.89925C7.79202 10.0266 7.542 10.1528 7.25032 10.279C6.87531 10.4469 6.45862 10.616 6.08361 10.8267L4.70854 11.4577L3.58349 11.9636L2.20843 12.5958C1.83342 12.7649 1.4584 12.9327 1.04171 13.1434C0.750034 13.2696 0.416685 13.4387 0.125006 13.5649C0.0833371 13.5649 0.0833371 13.6066 0.0416685 13.5649H0C0.125006 13.3542 0.250011 13.1851 0.375017 12.9756C1.04171 11.8374 1.75008 10.7005 2.41678 9.56233C3.12514 8.34204 3.87517 7.11937 4.58354 5.89788C5.25024 4.76093 5.91693 3.62397 6.58363 2.52868C7.08365 1.6846 7.58367 0.885754 8.04203 0.0416685C8.12536 0.0416685 8.12536 0 8.16703 0C8.12536 0 8.16703 0 8.16703 0V0Z"
      fill="#8C8C8C"
    />
    <path
      d="M16.2504 13.565C15.6253 13.9864 14.9586 14.365 14.3336 14.7436C12.2919 15.9663 10.2918 17.1461 8.25001 18.3676C8.20834 18.3676 8.20834 18.4092 8.16667 18.4092C8.125 18.4092 8.125 18.3676 8.125 18.3676V9.89933C8.125 9.85767 8.16667 9.85767 8.20834 9.85767C8.37501 9.941 8.54169 10.0267 8.75003 10.1101C9.25005 10.3636 9.79174 10.5744 10.2918 10.8268C10.7501 11.0375 11.1668 11.2482 11.6252 11.4161C12.0835 11.6268 12.5002 11.8375 12.9586 12.0482C13.3336 12.2173 13.7503 12.3852 14.1253 12.5959C14.5003 12.7649 14.917 12.9328 15.292 13.1435C15.5837 13.2697 15.8753 13.4388 16.2087 13.565C16.2087 13.5233 16.2087 13.565 16.2504 13.565V13.565Z"
      fill="#141414"
    />
    <path
      d="M8.17224 26.6668C8.17224 26.6668 8.13057 26.6668 8.17224 26.6668C8.13057 26.6668 8.13057 26.6668 8.0889 26.6239C7.25553 25.4453 6.46383 24.3071 5.63046 23.1273L3.13035 19.5891C2.33864 18.4521 1.50527 17.3152 0.713572 16.1342L0.0885435 15.2496C0.0885435 15.2079 0.046875 15.2079 0.046875 15.1663C0.0885435 15.1663 0.0885435 15.2079 0.130212 15.2079C1.25526 15.8818 2.42198 16.5556 3.54703 17.2294C4.83876 18.0307 6.17215 18.789 7.46387 19.5891C7.67222 19.7153 7.92223 19.8415 8.13057 19.9677C8.17224 19.9677 8.17224 20.0105 8.17224 20.0522V26.6668Z"
      fill="#8C8C8C"
    />
    <path
      d="M0 13.1239C0 13.0822 0 13.0822 0 13.1239C0.416685 12.9132 0.833371 12.7453 1.25006 12.5346L2.87513 11.7762C3.29181 11.5655 3.7085 11.3976 4.12519 11.1869C4.70854 10.8917 5.33357 10.6393 5.91693 10.344C6.33362 10.175 6.7503 9.96423 7.16699 9.79637C7.45867 9.67017 7.75035 9.54398 8.04203 9.37492C8.0837 9.37492 8.0837 9.33325 8.12536 9.33325V17.9265C8.0837 17.9694 8.0837 17.9265 8.04203 17.9265C7.91702 17.8432 7.79202 17.8003 7.70868 17.7158L0.0833371 13.1668C0.0416685 13.1239 0 13.1239 0 13.1239ZM16.1257 14.6835C16.1257 14.7252 16.1257 14.7252 16.0841 14.7668C13.6673 18.2217 11.2505 21.6338 8.83373 25.0887C8.58372 25.4673 8.33371 25.8042 8.0837 26.184V19.4849C8.62539 19.148 9.16708 18.8111 9.70877 18.517L16.0841 14.7252C16.0841 14.6835 16.1257 14.6835 16.1257 14.6835V14.6835Z"
      fill="#3C3C3B"
    />
    <path
      d="M8.17188 9.85748V0.0439453L16.1722 13.4398C16.2139 13.4814 16.2556 13.5231 16.2556 13.566C16.0889 13.4826 15.9222 13.3969 15.7139 13.3136C15.5055 13.2291 15.2972 13.1029 15.0889 13.0183C14.9638 12.9767 14.8388 12.8921 14.6722 12.8493C14.4638 12.7659 14.2138 12.6386 14.0055 12.5552C13.8805 12.5124 13.7555 12.429 13.6305 12.3862L12.7554 12.0076C12.5887 11.923 12.4637 11.8814 12.2971 11.7969C12.0887 11.7123 11.8804 11.5861 11.672 11.5016C11.547 11.4599 11.422 11.3754 11.297 11.3337L10.422 10.954C10.2553 10.8706 10.1303 10.8278 9.96362 10.7432C9.75528 10.6599 9.54694 10.5325 9.33859 10.448C9.21359 10.3646 9.04691 10.3218 8.92191 10.2384L8.17188 9.85867V9.85748Z"
      fill="#343434"
    />
    </symbol>

    <symbol viewBox="0 0 12 7" fill="none" id="chevron-down">
    <path
      d="M10.375 1.25L6 5.625L1.625 1.25"
      stroke="currentColor"
      stroke-width="2"
      stroke-linecap="round"
      stroke-linejoin="round"
    />
    </symbol>

    <symbol viewBox="0 0 59 59" fill="none" id="weth-asset-icon">
    <g clip-path="url(#clip0_303_25)">
    <path
        d="M29.4947 0L29.0989 1.34453V40.3562L29.4947 40.7511L47.6031 30.0471L29.4947 0Z"
        fill="#C84778"
      />
    <path
        d="M29.4947 0L11.3858 30.0471L29.4947 40.7511V21.8159V0Z"
        fill="#D986A7"
      />
    <path
        d="M29.4947 44.1797L29.2716 44.4518V58.3483L29.4947 58.9996L47.6142 33.4812L29.4947 44.1797Z"
        fill="#C94778"
      />
    <path
        d="M29.4947 58.9996V44.1797L11.3858 33.4812L29.4947 58.9996Z"
        fill="#DA86A8"
      />
    <path
        d="M29.4947 40.7511L47.6031 30.0471L29.4947 21.8159V40.7511Z"
        fill="#5E1B35"
      />
    <path
        d="M11.3858 30.0471L29.4947 40.7511V21.8159L11.3858 30.0471Z"
        fill="#C84779"
      />
    </g>
    <defs>
    <clipPath id="clip0_303_25">
    <rect width="59" height="59" fill="white" />
    </clipPath>
    </defs>
    </symbol>

    <symbol viewBox="0 0 560 560" fill="none" id="wbtc-asset-icon">
    <g clip-path="url(#clip0_402_10)">
    <path
        d="M456.621 117.525L441.245 132.901C477.935 173.024 498.281 225.426 498.281 279.795C498.281 334.164 477.935 386.565 441.245 426.689L456.621 442.065C497.424 397.806 520.078 339.813 520.078 279.616C520.078 219.418 497.424 161.425 456.621 117.166V117.525Z"
        fill="#5A5564"
      />
    <path
        d="M133.26 118.858C173.383 82.1677 225.784 61.8212 280.154 61.8212C334.523 61.8212 386.924 82.1677 427.047 118.858L442.424 103.482C398.165 62.6784 340.172 40.0248 279.974 40.0248C219.777 40.0248 161.784 62.6784 117.525 103.482L133.26 118.858Z"
        fill="#5A5564"
      />
    <path
        d="M118.858 426.842C82.2112 386.728 61.8914 334.359 61.8914 280.026C61.8914 225.692 82.2112 173.323 118.858 133.209L103.482 117.833C62.6784 162.091 40.0248 220.084 40.0248 280.282C40.0248 340.479 62.6784 398.472 103.482 442.731L118.858 426.842Z"
        fill="#5A5564"
      />
    <path
        d="M426.842 441.04C386.719 477.73 334.318 498.076 279.949 498.076C225.579 498.076 173.178 477.73 133.055 441.04L117.679 456.416C161.938 497.219 219.931 519.873 280.128 519.873C340.326 519.873 398.319 497.219 442.577 456.416L426.842 441.04Z"
        fill="#5A5564"
      />
    <path
        d="M377.075 228.695C374 196.61 346.323 185.847 311.316 182.566V138.385H284.254V181.746C277.13 181.746 269.852 181.746 262.625 181.746V138.385H235.768V182.874H180.875V211.832C180.875 211.832 200.864 211.474 200.556 211.832C204.161 211.436 207.778 212.454 210.646 214.672C213.515 216.89 215.41 220.135 215.933 223.723V345.502C215.856 346.768 215.526 348.005 214.962 349.141C214.399 350.276 213.613 351.287 212.652 352.114C211.709 352.957 210.606 353.6 209.408 354.005C208.21 354.41 206.943 354.569 205.682 354.472C206.041 354.779 186 354.472 186 354.472L180.875 386.813H235.255V432.019H262.317V387.479H283.947V431.814H311.06V387.121C356.778 384.353 388.658 373.077 392.656 330.28C395.885 295.837 379.689 280.461 353.806 274.26C369.541 266.52 379.279 252.169 377.075 228.695ZM339.147 324.95C339.147 358.572 281.538 354.728 263.189 354.728V295.069C281.538 295.12 339.147 289.841 339.147 324.95ZM326.59 240.893C326.59 271.646 278.514 267.904 263.24 267.904V213.677C278.514 213.677 326.59 208.86 326.59 240.893Z"
        fill="#F09242"
      />
    <path
        d="M279.949 560C224.574 559.99 170.446 543.561 124.408 512.79C78.3706 482.02 42.4902 438.289 21.304 387.128C0.117835 335.967 -5.42278 279.672 5.38272 225.362C16.1882 171.052 42.8546 121.166 82.0102 82.0102C121.166 42.8546 171.052 16.1882 225.362 5.38273C279.672 -5.42277 335.967 0.117843 387.128 21.304C438.289 42.4902 482.02 78.3706 512.79 124.408C543.561 170.446 559.99 224.574 560 279.949C560.007 316.728 552.768 353.147 538.696 387.128C524.625 421.108 503.997 451.984 477.99 477.99C451.984 503.997 421.108 524.625 387.128 538.696C353.147 552.768 316.728 560.007 279.949 560ZM279.949 21.8343C228.932 21.8748 179.072 37.0388 136.672 65.4096C94.2709 93.7805 61.2327 134.085 41.7328 181.228C22.2329 228.371 17.1466 280.237 27.1169 330.27C37.0872 380.303 61.6665 426.257 97.748 462.325C133.83 498.392 179.794 522.953 229.831 532.903C279.868 542.854 331.732 537.747 378.867 518.228C426.002 498.71 466.293 465.655 494.647 423.243C523.001 380.831 538.146 330.966 538.166 279.949C538.179 246.04 531.509 212.462 518.536 181.133C505.563 149.804 486.541 121.34 462.56 97.3679C438.578 73.3958 410.106 54.3858 378.772 41.4252C347.439 28.4645 313.857 21.8073 279.949 21.8343Z"
        fill="#282138"
      />
    </g>
    <defs>
    <clipPath id="clip0_402_10">
    <rect width="560" height="560" fill="white" />
    </clipPath>
    </defs>
    </symbol>

    <symbol viewBox="0 0 61 48" fill="none" id='protect-button-svg'>
    <path d="M0 0H12.5L27.5 48H19.5L0 0Z" fill="white" />
    <path
      d="M22 0.00585938H48.5L61.0002 47.9993H38.0002L22 0.00585938Z"
      fill="white"
    />
    </symbol>

    <symbol viewBox="0 0 192 151" fill="none" id="protect-rewards-info-icon">
    <path
      d="M134.961 131.268L24.0713 148.096L1.45312 34.0145L11.229 32.5637L112.421 17.4231L133.336 123.011L134.961 131.268Z"
      fill="#FF784B"
      stroke="#0D0D0D"
      stroke-width="0.3"
      stroke-linecap="round"
      stroke-linejoin="round"
    />
    <path
      fill-rule="evenodd"
      clip-rule="evenodd"
      d="M133.739 125.055L28.8596 141.259L7.28125 33.1496L11.2301 32.5633L112.422 17.4229L133.337 123.011L133.739 125.055Z"
      fill="#0D0D0D"
    />
    <path
      d="M133.738 125.055L133.804 125.485C133.922 125.467 134.027 125.402 134.095 125.305C134.163 125.208 134.189 125.087 134.166 124.971L133.738 125.055ZM28.8584 141.259L28.4305 141.344C28.4762 141.573 28.6943 141.725 28.9252 141.689L28.8584 141.259ZM7.28012 33.1494L7.21594 32.7185C7.0978 32.7359 6.99203 32.8009 6.92329 32.8985C6.85452 32.9961 6.82883 33.1174 6.85216 33.2345L7.28012 33.1494ZM11.229 32.5631L11.2931 32.994H11.2937L11.229 32.5631ZM112.421 17.4227L112.849 17.3382C112.804 17.1099 112.587 16.9574 112.356 16.9919L112.421 17.4227ZM133.336 123.011L133.764 122.927V122.926L133.336 123.011ZM133.671 124.624L28.7917 140.828L28.9252 141.689L133.804 125.485L133.671 124.624ZM29.2864 141.174L7.70807 33.064L6.85216 33.2345L28.4305 141.344L29.2864 141.174ZM7.34429 33.58L11.2931 32.994L11.1648 32.1325L7.21594 32.7185L7.34429 33.58ZM11.2937 32.994L112.486 17.8534L112.356 16.9919L11.1643 32.1325L11.2937 32.994ZM111.993 17.5072L132.908 123.095L133.764 122.926L112.849 17.3382L111.993 17.5072ZM132.907 123.095L133.31 125.139L134.166 124.971L133.764 122.927L132.907 123.095Z"
      fill="#0D0D0D"
    />
    <path
      d="M145.843 119.255L31.8162 136.458L8.53125 19.8646L122.639 2.90405L145.843 119.255Z"
      fill="#FFDF0D"
      stroke="#0D0D0D"
      stroke-width="0.3"
      stroke-linejoin="round"
    />
    <mask
      id="mask0_935_4215"
      style="mask-type:alpha"
      maskUnits="userSpaceOnUse"
      x="8"
      y="2"
      width="138"
      height="135"
    >
    <path
        d="M145.843 118.965L31.8162 136.169L8.53125 19.575L122.639 2.6145L145.843 118.965Z"
        fill="#FFDF0D"
      />
    </mask>
    <g mask="url(#mask0_935_4215)">
    <path
        d="M79.9979 128.931L135.271 37.4212L123.634 7.25952L42.1797 136.19L79.9979 128.931Z"
        fill="white"
      />
    <path
        d="M53.4258 82.3448L37.687 84.6905L34.6953 69.7792L50.4614 67.4065L53.4258 82.3448Z"
        fill="white"
        stroke="#0D0D0D"
        stroke-width="0.3"
        stroke-linecap="round"
        stroke-linejoin="round"
      />
    <path
        d="M59.3909 112.217L43.6519 114.536L40.6875 99.6245L56.4263 97.2788L59.3909 112.217Z"
        fill="white"
        stroke="#0D0D0D"
        stroke-width="0.3"
        stroke-linecap="round"
        stroke-linejoin="round"
      />
    <path
        d="M126.39 102.248L66.7222 111.092L63.7578 96.181L123.399 87.3364L126.39 102.248Z"
        stroke="#0D0D0D"
        stroke-width="0.3"
        stroke-linejoin="round"
      />
    <path
        d="M120.429 72.3713L60.7615 81.2426L57.7969 66.3583L117.438 57.4871L120.429 72.3713Z"
        stroke="#0D0D0D"
        stroke-width="0.3"
        stroke-linejoin="round"
      />
    <path
        d="M114.476 42.5686L54.8081 51.4129L51.8438 36.5016L111.484 27.6035L114.476 42.5686Z"
        stroke="#0D0D0D"
        stroke-width="0.3"
        stroke-linejoin="round"
      />
    <path
        d="M47.4804 52.5194L31.7414 54.8381L28.75 39.9269L44.5158 37.6082L47.4804 52.5194Z"
        fill="white"
        stroke="#0D0D0D"
        stroke-width="0.3"
        stroke-linecap="round"
        stroke-linejoin="round"
      />
    </g>
    <path
      fill-rule="evenodd"
      clip-rule="evenodd"
      d="M132.227 27.5525C125.552 30.5169 119.881 35.3562 115.9 41.4827C111.92 47.609 109.803 54.7597 109.805 62.0666C109.857 71.9142 113.731 81.3563 120.61 88.3999C127.489 95.4434 136.834 99.537 146.673 99.8166L132.227 27.5525Z"
      fill="#0D0D0D"
      stroke="#0D0D0D"
      stroke-width="0.3"
      stroke-linecap="round"
      stroke-linejoin="round"
    />
    <path
      fill-rule="evenodd"
      clip-rule="evenodd"
      d="M152.55 18.1151C162.586 18.1006 172.219 22.0645 179.341 29.1394C186.463 36.2143 190.493 45.824 190.55 55.8652C190.529 65.9319 186.515 75.5788 179.39 82.6871C172.265 89.7955 162.612 93.7839 152.55 93.7766C142.484 93.7909 132.824 89.8059 125.693 82.6967C118.562 75.5875 114.545 65.9366 114.523 55.8652C114.58 45.8193 118.614 36.2056 125.742 29.1298C132.87 22.0542 142.509 18.0935 152.55 18.1151Z"
      fill="white"
      stroke="#0D0D0D"
      stroke-width="0.3"
      stroke-linecap="round"
      stroke-linejoin="round"
    />
    <path
      d="M152.543 27.201C156.33 27.194 160.081 27.933 163.582 29.3765C167.084 30.8197 170.266 32.939 172.949 35.6131C175.632 38.2873 177.762 41.4641 179.217 44.9618C180.673 48.4597 181.426 52.2098 181.433 55.9987C181.429 59.79 180.68 63.5432 179.225 67.0441C177.771 70.5449 175.642 73.7246 172.959 76.4017C170.275 79.0788 167.091 81.2003 163.588 82.6453C160.085 84.0905 156.332 84.8307 152.543 84.8237C148.751 84.8345 144.995 84.0969 141.489 82.6534C137.983 81.2099 134.795 79.0886 132.109 76.4113C129.423 73.7339 127.291 70.5531 125.835 67.0504C124.38 63.5478 123.628 59.792 123.625 55.9987C123.632 52.2074 124.386 48.4551 125.843 44.9557C127.301 41.4559 129.433 38.2783 132.119 35.6038C134.804 32.9291 137.99 30.8107 141.495 29.369C145 27.927 148.753 27.1904 152.543 27.201Z"
      fill="#044BCA"
      stroke="#0D0D0D"
      stroke-width="0.3"
      stroke-linecap="round"
      stroke-linejoin="round"
    />
    <path
      d="M170.437 43.9688V54.2188C170.438 54.4717 170.364 54.7192 170.224 54.9301C170.085 55.141 169.886 55.3059 169.652 55.4039C169.494 55.4667 169.326 55.4993 169.156 55.5C168.816 55.4986 168.489 55.3667 168.243 55.1316L164.031 50.9035L154.694 60.2566C154.451 60.4972 154.123 60.6322 153.781 60.6322C153.439 60.6322 153.111 60.4972 152.868 60.2566L147.375 54.7473L136.756 65.3816C136.51 65.6167 136.184 65.7486 135.843 65.75C135.504 65.7454 135.178 65.614 134.93 65.3816C134.69 65.1387 134.555 64.8106 134.555 64.4688C134.555 64.1269 134.69 63.7988 134.93 63.5559L146.462 52.0246C146.705 51.784 147.033 51.649 147.375 51.649C147.717 51.649 148.045 51.784 148.288 52.0246L153.781 57.534L162.221 49.0938L157.993 44.8816C157.819 44.6964 157.701 44.4657 157.653 44.2163C157.605 43.9669 157.628 43.7089 157.721 43.4723C157.82 43.2403 157.986 43.0425 158.196 42.9031C158.407 42.7637 158.653 42.6888 158.906 42.6875H169.156C169.496 42.6875 169.822 42.8225 170.062 43.0628C170.302 43.3031 170.437 43.6289 170.437 43.9688Z"
      fill="white"
    />
    </symbol>

    <symbol viewBox="0 0 24 24" fill="none" id="hamburger-icon">
    <path
      d="M3 12H21M3 6H21M3 18H21"
      stroke="white"
      stroke-width="2"
      stroke-linecap="round"
      stroke-linejoin="round"
    />
    </symbol>

    <symbol viewBox="0 0 42 42" fill="none" id="no-notifications-icon">
    <g filter="url(#filter0_b_1046_4375)">
    <rect width="42" height="42" rx="21" fill="white" fill-opacity="0.067" />
    <path
        d="M15.3905 19.75C15.3884 19.0121 15.532 18.2809 15.8129 17.5986C16.0939 16.9162 16.5068 16.2959 17.0279 15.7734C17.549 15.2508 18.168 14.8363 18.8496 14.5534C19.5312 14.2705 20.2619 14.1249 20.9999 14.1249C21.7379 14.1249 22.4686 14.2705 23.1502 14.5534C23.8318 14.8363 24.4508 15.2508 24.9719 15.7734C25.493 16.2959 25.9059 16.9162 26.1869 17.5986C26.4678 18.2809 26.6114 19.0121 26.6094 19.75V19.75C26.6094 22.5481 27.1948 24.1718 27.7104 25.0592C27.7659 25.1541 27.7955 25.2619 27.7961 25.3718C27.7966 25.4816 27.7682 25.5897 27.7137 25.6852C27.6592 25.7806 27.5805 25.8599 27.4855 25.9152C27.3905 25.9705 27.2826 25.9997 27.1727 26H14.8264C14.7165 25.9997 14.6087 25.9705 14.5137 25.9152C14.4187 25.8599 14.34 25.7805 14.2854 25.6851C14.2309 25.5897 14.2025 25.4815 14.2031 25.3716C14.2037 25.2617 14.2333 25.1539 14.2889 25.0591C14.8048 24.1716 15.3905 22.548 15.3905 19.75H15.3905Z"
        stroke="#B3B3B3"
        stroke-width="1.5"
        stroke-linecap="round"
        stroke-linejoin="round"
      />
    <path
        d="M18.5 26V26.625C18.5 27.288 18.7634 27.9239 19.2322 28.3928C19.7011 28.8616 20.337 29.125 21 29.125C21.663 29.125 22.2989 28.8616 22.7678 28.3928C23.2366 27.9239 23.5 27.288 23.5 26.625V26"
        stroke="#B3B3B3"
        stroke-width="1.5"
        stroke-linecap="round"
        stroke-linejoin="round"
      />
    <path
        d="M25.3311 12.8741C26.6028 13.6769 27.628 14.8156 28.2934 16.1644"
        stroke="#B3B3B3"
        stroke-width="1.5"
        stroke-linecap="round"
        stroke-linejoin="round"
      />
    <path
        d="M13.707 16.1644C14.3725 14.8156 15.3976 13.6769 16.6694 12.8741"
        stroke="#B3B3B3"
        stroke-width="1.5"
        stroke-linecap="round"
        stroke-linejoin="round"
      />
    </g>
    <defs>
    <filter
        id="filter0_b_1046_4375"
        x="-4"
        y="-4"
        width="50"
        height="50"
        filterUnits="userSpaceOnUse"
        color-interpolation-filters="sRGB"
      >
    <feFlood flood-opacity="0" result="BackgroundImageFix" />
    <feGaussianBlur in="BackgroundImage" stdDeviation="2" />
    <feComposite
          in2="SourceAlpha"
          operator="in"
          result="effect1_backgroundBlur_1046_4375"
        />
    <feBlend
          mode="normal"
          in="SourceGraphic"
          in2="effect1_backgroundBlur_1046_4375"
          result="shape"
        />
    </filter>
    </defs>
    </symbol>

    <symbol viewBox="0 0 42 42" fill="none" id="notifications-icon">
    <g filter="url(#filter0_b_1046_4374)">
    <rect width="42" height="42" rx="21" fill="white" fill-opacity="0.067" />
    <path
        d="M15.3905 19.75C15.3884 19.0121 15.532 18.2809 15.8129 17.5986C16.0939 16.9162 16.5068 16.2959 17.0279 15.7734C17.549 15.2508 18.168 14.8363 18.8496 14.5534C19.5312 14.2705 20.2619 14.1249 20.9999 14.1249C21.7379 14.1249 22.4686 14.2705 23.1502 14.5534C23.8318 14.8363 24.4508 15.2508 24.9719 15.7734C25.493 16.2959 25.9059 16.9162 26.1869 17.5986C26.4678 18.2809 26.6114 19.0121 26.6094 19.75V19.75C26.6094 22.5481 27.1948 24.1718 27.7104 25.0592C27.7659 25.1541 27.7955 25.2619 27.7961 25.3718C27.7966 25.4816 27.7682 25.5897 27.7137 25.6852C27.6592 25.7806 27.5805 25.8599 27.4855 25.9152C27.3905 25.9705 27.2826 25.9997 27.1727 26H14.8264C14.7165 25.9997 14.6087 25.9705 14.5137 25.9152C14.4187 25.8599 14.34 25.7805 14.2854 25.6851C14.2309 25.5897 14.2025 25.4815 14.2031 25.3716C14.2037 25.2617 14.2333 25.1539 14.2889 25.0591C14.8048 24.1716 15.3905 22.548 15.3905 19.75H15.3905Z"
        stroke="#B3B3B3"
        stroke-width="1.5"
        stroke-linecap="round"
        stroke-linejoin="round"
      />
    <path
        d="M18.5 26V26.625C18.5 27.288 18.7634 27.9239 19.2322 28.3928C19.7011 28.8616 20.337 29.125 21 29.125C21.663 29.125 22.2989 28.8616 22.7678 28.3928C23.2366 27.9239 23.5 27.288 23.5 26.625V26"
        stroke="#B3B3B3"
        stroke-width="1.5"
        stroke-linecap="round"
        stroke-linejoin="round"
      />
    <path
        d="M25.3311 12.8741C26.6028 13.6769 27.628 14.8156 28.2934 16.1644"
        stroke="#B3B3B3"
        stroke-width="1.5"
        stroke-linecap="round"
        stroke-linejoin="round"
      />
    <path
        d="M13.707 16.1644C14.3725 14.8156 15.3976 13.6769 16.6694 12.8741"
        stroke="#B3B3B3"
        stroke-width="1.5"
        stroke-linecap="round"
        stroke-linejoin="round"
      />
    <ellipse cx="34.7531" cy="6.6521" rx="2.8" ry="3" fill="#D9523D" />
    </g>
    <defs>
    <filter
        id="filter0_b_1046_4374"
        x="-4"
        y="-4"
        width="50"
        height="50"
        filterUnits="userSpaceOnUse"
        color-interpolation-filters="sRGB"
      >
    <feFlood flood-opacity="0" result="BackgroundImageFix" />
    <feGaussianBlur in="BackgroundImage" stdDeviation="2" />
    <feComposite
          in2="SourceAlpha"
          operator="in"
          result="effect1_backgroundBlur_1046_4374"
        />
    <feBlend
          mode="normal"
          in="SourceGraphic"
          in2="effect1_backgroundBlur_1046_4374"
          result="shape"
        />
    </filter>
    </defs>
    </symbol>

    <symbol viewBox="0 0 16 16" fill="none" id="protect-icon">
    <path
      d="M8 14C11.3137 14 14 11.3137 14 8C14 4.68629 11.3137 2 8 2C4.68629 2 2 4.68629 2 8C2 11.3137 4.68629 14 8 14Z"
      stroke="#30C952"
      stroke-linecap="round"
      stroke-linejoin="round"
    />
    <path
      d="M5.88086 8.38123L7.99961 10.5L10.1184 8.38123"
      stroke="#30C952"
      stroke-linecap="round"
      stroke-linejoin="round"
    />
    <path
      d="M8 5.5V10.5"
      stroke="#30C952"
      stroke-linecap="round"
      stroke-linejoin="round"
    />
    </symbol>

    <symbol viewBox="0 0 16 16" fill="none" id="withdraw-icon">
    <path
      d="M8 2C4.68629 2 2 4.68629 2 8C2 11.3137 4.68629 14 8 14C11.3137 14 14 11.3137 14 8C14 4.68629 11.3137 2 8 2Z"
      stroke="#FF0000"
      stroke-opacity="0.34"
      stroke-linecap="round"
      stroke-linejoin="round"
    />
    <path
      d="M10.1191 7.61877L8.00039 5.50002L5.88164 7.61877"
      stroke="#FF0000"
      stroke-opacity="0.34"
      stroke-linecap="round"
      stroke-linejoin="round"
    />
    <path
      d="M8 10.5L8 5.5"
      stroke="#FF0000"
      stroke-opacity="0.34"
      stroke-linecap="round"
      stroke-linejoin="round"
    />
    </symbol>

    <symbol viewBox="0 0 12 12" fill="none" id="redirect-icon">
    <path
      d="M10.125 4.6875V1.875H7.3125"
      stroke="currentColor"
      stroke-linecap="round"
      stroke-linejoin="round"
    />
    <path
      d="M6.75 5.25L10.125 1.875"
      stroke="currentColor"
      stroke-linecap="round"
      stroke-linejoin="round"
    />
    <path
      d="M8.625 6.75V9.75C8.625 9.84946 8.58549 9.94484 8.51517 10.0152C8.44484 10.0855 8.34946 10.125 8.25 10.125H2.25C2.15054 10.125 2.05516 10.0855 1.98484 10.0152C1.91451 9.94484 1.875 9.84946 1.875 9.75V3.75C1.875 3.65054 1.91451 3.55516 1.98484 3.48484C2.05516 3.41451 2.15054 3.375 2.25 3.375H5.25"
      stroke="currentColor"
      stroke-linecap="round"
      stroke-linejoin="round"
    />
    </symbol>

    <symbol viewBox="0 0 16 16" fill="none" id="metamask-icon">
    <path
      d="M14.0024 1.7406L8.7998 5.62082L9.7619 3.33154L14.0024 1.7406Z"
      fill="#E2761B"
    />
    <path
      d="M1.9914 1.7406L7.15219 5.65758L6.23715 3.33154L1.9914 1.7406ZM12.13 10.7349L10.7443 12.8667L13.7091 13.6858L14.5613 10.7822L12.13 10.7349ZM1.44238 10.7822L2.28944 13.6858L5.25415 12.8667L3.86853 10.7349L1.44238 10.7822Z"
      fill="#E4761B"
    />
    <path
      d="M5.08689 7.13301L4.26074 8.38791L7.20453 8.51918L7.09996 5.34254L5.08689 7.13301ZM10.9065 7.13301L8.86728 5.30579L8.7993 8.51918L11.7379 8.38791L10.9065 7.13301ZM5.25421 12.8667L7.02153 12.0003L5.49473 10.8032L5.25421 12.8667ZM8.97185 12.0003L10.7444 12.8667L10.4986 10.8032L8.97185 12.0003Z"
      fill="#E4761B"
    />
    <path
      d="M10.7451 12.8667L8.97253 12.0004L9.11371 13.1608L9.09802 13.6491L10.7451 12.8667ZM5.25488 12.8667L6.90194 13.6491L6.89148 13.1608L7.0222 12.0004L5.25488 12.8667Z"
      fill="#D7C1B3"
    />
    <path
      d="M6.92763 10.0367L5.45312 9.60085L6.49365 9.12305L6.92763 10.0367ZM9.0662 10.0367L9.50018 9.12305L10.5459 9.60085L9.0662 10.0367Z"
      fill="#233447"
    />
    <path
      d="M5.25476 12.8667L5.50574 10.735L3.86914 10.7822L5.25476 12.8667ZM10.494 10.735L10.745 12.8667L12.1306 10.7822L10.494 10.735ZM11.7384 8.38794L8.79986 8.51921L9.07175 10.0366L9.50574 9.12303L10.5515 9.60084L11.7384 8.38794ZM5.45345 9.60084L6.49921 9.12303L6.92796 10.0366L7.20509 8.51921L4.2613 8.38794L5.45345 9.60084Z"
      fill="#CD6116"
    />
    <path
      d="M4.26074 8.38794L5.49473 10.8032L5.4529 9.60084L4.26074 8.38794ZM10.5509 9.60084L10.4986 10.8032L11.7379 8.38794L10.5509 9.60084ZM7.20453 8.51921L6.92741 10.0366L7.27251 11.8271L7.35094 9.46957L7.20453 8.51921ZM8.7993 8.51921L8.65813 9.46432L8.72087 11.8271L9.0712 10.0366L8.7993 8.51921Z"
      fill="#E4751F"
    />
    <path
      d="M9.07143 10.0366L8.7211 11.8271L8.97208 12.0004L10.4989 10.8032L10.5512 9.60083L9.07143 10.0366ZM5.45312 9.60083L5.49496 10.8032L7.02175 12.0004L7.27273 11.8271L6.92764 10.0366L5.45312 9.60083Z"
      fill="#F6851B"
    />
    <path
      d="M9.09802 13.649L9.11371 13.1607L8.98299 13.0452H7.01175L6.89148 13.1607L6.90194 13.649L5.25488 12.8667L5.83005 13.3393L6.99606 14.1531H8.99867L10.1699 13.3393L10.7451 12.8667L9.09802 13.649Z"
      fill="#C0AD9E"
    />
    <path
      d="M8.97265 12.0003L8.72167 11.827H7.2733L7.02232 12.0003L6.8916 13.1607L7.01186 13.0452H8.98311L9.11382 13.1607L8.97265 12.0003Z"
      fill="#161616"
    />
    <path
      d="M14.2219 5.87285L14.6663 3.73059L14.0023 1.7406L8.97222 5.48956L10.9069 7.133L13.6415 7.93635L14.248 7.22752L13.9866 7.03849L14.4049 6.6552L14.0807 6.40317L14.499 6.08288L14.2219 5.87285ZM1.33301 3.73059L1.77745 5.87285L1.4951 6.08288L1.9134 6.40317L1.59445 6.6552L2.01275 7.03849L1.75131 7.22752L2.35262 7.93635L5.08726 7.133L7.0219 5.48956L1.99183 1.7406L1.33301 3.73059Z"
      fill="#763D16"
    />
    <path
      d="M13.6411 7.93635L10.9064 7.133L11.7378 8.38791L10.4986 10.8032L12.13 10.7822H14.5613L13.6411 7.93635ZM5.08683 7.133L2.35219 7.93635L1.44238 10.7822H3.86853L5.49467 10.8032L4.26068 8.38791L5.08683 7.133ZM8.79925 8.51917L8.97179 5.48955L9.76657 3.33154H6.23715L7.02147 5.48955L7.20447 8.51917L7.26722 9.47479L7.27245 11.8271H8.72081L8.73127 9.47479L8.79925 8.51917Z"
      fill="#F6851B"
    />
    </symbol>

    <symbol viewBox="0 0 16 16" fill="none" id="copy-icon">
    <path
      d="M13.75 11V2.25H5"
      stroke="white"
      stroke-linecap="round"
      stroke-linejoin="round"
    />
    <path
      d="M11.25 4.75H2.5V13.5H11.25V4.75Z"
      stroke="white"
      stroke-linecap="round"
      stroke-linejoin="round"
    />
    </symbol>

    <symbol viewBox="0 0 16 17" fill="none" id="disconnect-icon">
    <path
      d="M10.875 5.875L13.5 8.5L10.875 11.125"
      stroke="currentColor"
      stroke-width="2"
      stroke-linecap="round"
      stroke-linejoin="round"
    />
    <path
      d="M6.5 8.5H13.5"
      stroke="currentColor"
      stroke-width="2"
      stroke-linecap="round"
      stroke-linejoin="round"
    />
    <path
      d="M6.5 14H3C2.86739 14 2.74021 13.9473 2.64645 13.8536C2.55268 13.7598 2.5 13.6326 2.5 13.5V3.5C2.5 3.36739 2.55268 3.24021 2.64645 3.14645C2.74021 3.05268 2.86739 3 3 3H6.5"
      stroke="currentColor"
      stroke-width="2"
      stroke-linecap="round"
      stroke-linejoin="round"
    />
    </symbol>

    <symbol viewBox="0 0 16 16" id="coinbase-icon">
    <path
      d="M8,12c-2.21,0-4-1.79-4-4c0-2.21,1.79-4,4-4c1.86,0,3.41,1.28,3.86,3h4.07C15.44,3.05,12.08,0,8,0 C3.58,0,0,3.58,0,8c0,4.42,3.58,8,8,8c4.08,0,7.44-3.05,7.93-7h-4.07C11.41,10.72,9.86,12,8,12z"
      fill="#0052FF"
    />
    </symbol>

    <symbol viewBox="0 0 387.6 237.6" id="walletconnect-icon">
    <path
      id="WalletConnect_00000073703063438220642730000002917717552236472496_"
      fill="#3B99FC"
      d="M79.4,46.4  c63.2-61.9,165.7-61.9,228.9,0l7.6,7.4c3.2,3.1,3.2,8.1,0,11.2l-26,25.5c-1.6,1.5-4.1,1.5-5.7,0l-10.5-10.3  c-44.1-43.2-115.6-43.2-159.7,0l-11.2,11c-1.6,1.5-4.1,1.5-5.7,0L71,65.8c-3.2-3.1-3.2-8.1,0-11.2L79.4,46.4z M362.1,99.1l23.2,22.7  c3.2,3.1,3.2,8.1,0,11.2L280.8,235.3c-3.2,3.1-8.3,3.1-11.4,0c0,0,0,0,0,0l-74.1-72.6c-0.8-0.8-2.1-0.8-2.9,0c0,0,0,0,0,0  l-74.1,72.6c-3.2,3.1-8.3,3.1-11.4,0c0,0,0,0,0,0L2.4,133c-3.2-3.1-3.2-8.1,0-11.2l23.2-22.7c3.2-3.1,8.3-3.1,11.4,0l74.1,72.6  c0.8,0.8,2.1,0.8,2.9,0c0,0,0,0,0,0l74.1-72.6c3.2-3.1,8.3-3.1,11.4,0c0,0,0,0,0,0l74.1,72.6c0.8,0.8,2.1,0.8,2.9,0l74.1-72.6  C353.8,96,358.9,96,362.1,99.1z"
    />
    </symbol>

    <symbol viewBox="0 0 16 16" fill="none" id="gas-icon">
    <path
      d="M3.5 13.5V3.5C3.5 3.23478 3.60536 2.98043 3.79289 2.79289C3.98043 2.60536 4.23478 2.5 4.5 2.5H9.5C9.76522 2.5 10.0196 2.60536 10.2071 2.79289C10.3946 2.98043 10.5 3.23478 10.5 3.5V13.5"
      stroke="currentColor"
      stroke-opacity="0.7"
      stroke-width="1.5"
      stroke-linecap="round"
      stroke-linejoin="round"
    />
    <path
      d="M2 13.5H12"
      stroke="currentColor"
      stroke-opacity="0.7"
      stroke-width="1.5"
      stroke-linecap="round"
      stroke-linejoin="round"
    />
    <path
      d="M10.5 7H12C12.2652 7 12.5196 7.10536 12.7071 7.29289C12.8946 7.48043 13 7.73478 13 8V10.5C13 10.7652 13.1054 11.0196 13.2929 11.2071C13.4804 11.3946 13.7348 11.5 14 11.5H14.25C14.5152 11.5 14.7696 11.3946 14.9571 11.2071C15.1446 11.0196 15.25 10.7652 15.25 10.5V5.4125C15.2489 5.14759 15.1433 4.89382 14.9563 4.70625L13.75 3.5"
      stroke="currentColor"
      stroke-opacity="0.7"
      stroke-width="1.5"
      stroke-linecap="round"
      stroke-linejoin="round"
    />
    <path
      d="M8 7H6"
      stroke="currentColor"
      stroke-opacity="0.7"
      stroke-width="1.5"
      stroke-linecap="round"
      stroke-linejoin="round"
    />
    </symbol>

    <symbol viewBox="0 0 16 17" fill="none" id="arrows-counter-clockwise-icon">
    <path
      d="M4.9873 6.7312H1.9873V3.7312"
      stroke="currentColor"
      stroke-width="1.5"
      stroke-linecap="round"
      stroke-linejoin="round"
    />
    <path
      d="M11.8873 4.61253C11.3771 4.10154 10.7711 3.69615 10.104 3.41956C9.43697 3.14298 8.72193 3.00061 7.9998 3.00061C7.27768 3.00061 6.56264 3.14298 5.89559 3.41956C5.22853 3.69615 4.62255 4.10154 4.1123 4.61253L1.9873 6.73128"
      stroke="currentColor"
      stroke-width="1.5"
      stroke-linecap="round"
      stroke-linejoin="round"
    />
    <path
      d="M11.0127 10.2688H14.0127V13.2688"
      stroke="currentColor"
      stroke-width="1.5"
      stroke-linecap="round"
      stroke-linejoin="round"
    />
    <path
      d="M4.1123 12.3875C4.62255 12.8985 5.22853 13.3039 5.89559 13.5805C6.56264 13.8571 7.27768 13.9995 7.9998 13.9995C8.72193 13.9995 9.43697 13.8571 10.104 13.5805C10.7711 13.3039 11.3771 12.8985 11.8873 12.3875L14.0123 10.2688"
      stroke="currentColor"
      stroke-width="1.5"
      stroke-linecap="round"
      stroke-linejoin="round"
    />
    </symbol>

    <symbol viewBox="0 0 20 20" fill="none" id="mobile-notification-icon">
    <path
      d="M4.39046 8.75001C4.3884 8.01205 4.53197 7.28094 4.81295 6.59856C5.09393 5.91618 5.50679 5.29594 6.02788 4.7734C6.54897 4.25085 7.16805 3.83626 7.84964 3.55337C8.53123 3.27049 9.26194 3.12488 9.99991 3.12488C10.7379 3.12488 11.4686 3.27049 12.1502 3.55337C12.8318 3.83626 13.4508 4.25085 13.9719 4.7734C14.493 5.29594 14.9059 5.91618 15.1869 6.59856C15.4678 7.28094 15.6114 8.01205 15.6094 8.75001V8.75001C15.6094 11.5481 16.1948 13.1718 16.7104 14.0592C16.7659 14.1541 16.7955 14.2619 16.7961 14.3718C16.7966 14.4816 16.7682 14.5897 16.7137 14.6852C16.6592 14.7806 16.5805 14.8599 16.4855 14.9152C16.3905 14.9705 16.2826 14.9997 16.1727 15H3.82645C3.71654 14.9997 3.60865 14.9705 3.51367 14.9152C3.41868 14.8599 3.33996 14.7805 3.28544 14.6851C3.23092 14.5897 3.20253 14.4815 3.20313 14.3716C3.20374 14.2617 3.23332 14.1539 3.28889 14.0591C3.80478 13.1716 4.39046 11.548 4.39046 8.75001H4.39046Z"
      stroke="#B3B3B3"
      stroke-width="1.5"
      stroke-linecap="round"
      stroke-linejoin="round"
    />
    <path
      d="M7.5 15V15.625C7.5 16.288 7.76339 16.9239 8.23223 17.3928C8.70107 17.8616 9.33696 18.125 10 18.125C10.663 18.125 11.2989 17.8616 11.7678 17.3928C12.2366 16.9239 12.5 16.288 12.5 15.625V15"
      stroke="#B3B3B3"
      stroke-width="1.5"
      stroke-linecap="round"
      stroke-linejoin="round"
    />
    <path
      d="M14.3311 1.87408C15.6028 2.67694 16.628 3.8156 17.2934 5.16437"
      stroke="#B3B3B3"
      stroke-width="1.5"
      stroke-linecap="round"
      stroke-linejoin="round"
    />
    <path
      d="M2.70703 5.16437C3.37246 3.8156 4.39765 2.67694 5.66941 1.87408"
      stroke="#B3B3B3"
      stroke-width="1.5"
      stroke-linecap="round"
      stroke-linejoin="round"
    />
    </symbol>

    <symbol viewBox="0 0 24 24" fill="none" id="close-icon">
      <path
      d="M18 6L6 18M6 6L18 18"
      stroke="white"
      stroke-width="2"
      stroke-linecap="round"
      stroke-linejoin="round"
    />
    </symbol>

    <symbol viewBox="0 0 44 44" fill="none" id="green-check-icon">
    <path
      d="M22 42C27.5228 42 32.5228 39.7614 36.1421 36.1421C39.7614 32.5228 42 27.5228 42 22C42 16.4772 39.7614 11.4772 36.1421 7.85786C32.5228 4.23858 27.5228 2 22 2C16.4772 2 11.4772 4.23858 7.85786 7.85786C4.23858 11.4772 2 16.4772 2 22C2 27.5228 4.23858 32.5228 7.85786 36.1421C11.4772 39.7614 16.4772 42 22 42Z"
      fill="none"
      stroke="#30E696"
      stroke-width="4"
      stroke-linejoin="round"
    />
    <path
      d="M14 22L20 28L32 16"
      stroke="#30E696"
      stroke-width="4"
      stroke-linecap="round"
      stroke-linejoin="round"
    />
    </symbol>

    <symbol viewBox="0 0 122.88 122.879" fill="none" id="red-cross-icon">
    <g>
    <path
        fill="#FF4141"
        d="M61.44,0c16.96,0,32.328,6.882,43.453,17.986c11.104,11.125,17.986,26.494,17.986,43.453 c0,16.961-6.883,32.328-17.986,43.453C93.769,115.998,78.4,122.879,61.44,122.879c-16.96,0-32.329-6.881-43.454-17.986 C6.882,93.768,0,78.4,0,61.439C0,44.48,6.882,29.111,17.986,17.986C29.112,6.882,44.48,0,61.44,0L61.44,0z M73.452,39.152 c2.75-2.792,7.221-2.805,9.986-0.026c2.764,2.776,2.775,7.292,0.027,10.083L71.4,61.445l12.077,12.25 c2.728,2.77,2.689,7.256-0.081,10.021c-2.772,2.766-7.229,2.758-9.954-0.012L61.445,71.541L49.428,83.729 c-2.75,2.793-7.22,2.805-9.985,0.025c-2.763-2.775-2.776-7.291-0.026-10.082L51.48,61.435l-12.078-12.25 c-2.726-2.769-2.689-7.256,0.082-10.022c2.772-2.765,7.229-2.758,9.954,0.013L61.435,51.34L73.452,39.152L73.452,39.152z M96.899,25.98C87.826,16.907,75.29,11.296,61.44,11.296c-13.851,0-26.387,5.611-35.46,14.685 c-9.073,9.073-14.684,21.609-14.684,35.459s5.611,26.387,14.684,35.459c9.073,9.074,21.609,14.686,35.46,14.686 c13.85,0,26.386-5.611,35.459-14.686c9.073-9.072,14.684-21.609,14.684-35.459S105.973,35.054,96.899,25.98L96.899,25.98z"
      />
    </g>
    </symbol>

    <symbol viewBox="0 0 24 24" fill="none" id="twitter-icon">
    <path
      d="M7.55016 21.7508C16.6045 21.7508 21.5583 14.2476 21.5583 7.74272C21.5583 7.53178 21.5536 7.31615 21.5442 7.10522C22.5079 6.40832 23.3395 5.54511 24 4.55615C23.1025 4.95545 22.1496 5.21624 21.1739 5.32959C22.2013 4.71376 22.9705 3.74633 23.3391 2.60662C22.3726 3.17941 21.3156 3.58347 20.2134 3.80147C19.4708 3.01242 18.489 2.48997 17.4197 2.31491C16.3504 2.13984 15.2532 2.3219 14.2977 2.83295C13.3423 3.344 12.5818 4.15556 12.1338 5.14217C11.6859 6.12877 11.5754 7.23547 11.8195 8.29115C9.86249 8.19295 7.94794 7.68456 6.19998 6.79895C4.45203 5.91335 2.90969 4.67029 1.67297 3.15037C1.0444 4.2341 0.852057 5.5165 1.13503 6.73695C1.418 7.95739 2.15506 9.0243 3.19641 9.72084C2.41463 9.69602 1.64998 9.48553 0.965625 9.10678V9.16772C0.964925 10.305 1.3581 11.4074 2.07831 12.2876C2.79852 13.1678 3.80132 13.7714 4.91625 13.9958C4.19206 14.194 3.43198 14.2229 2.69484 14.0802C3.00945 15.0583 3.62157 15.9137 4.44577 16.5272C5.26997 17.1406 6.26512 17.4815 7.29234 17.5021C5.54842 18.872 3.39417 19.615 1.17656 19.6115C0.783287 19.6109 0.390399 19.5868 0 19.5393C2.25286 20.9846 4.87353 21.7522 7.55016 21.7508Z"
      fill="white"
    />
    </symbol>

    <symbol viewBox="0 0 24 24" fill="none" id="github-icon">
      <g clip-path="url(#clip0_1185_10256)">
      <path
        fill-rule="evenodd"
        clip-rule="evenodd"
        d="M12 0.00012207C5.37 0.00012207 0 5.37012 0 12.0001C0 17.3101 3.435 21.7951 8.205 23.3851C8.805 23.4901 9.03 23.1301 9.03 22.8151C9.03 22.5301 9.015 21.5851 9.015 20.5801C6 21.1351 5.22 19.8451 4.98 19.1701C4.845 18.8251 4.26 17.7601 3.75 17.4751C3.33 17.2501 2.73 16.6951 3.735 16.6801C4.68 16.6651 5.355 17.5501 5.58 17.9101C6.66 19.7251 8.385 19.2151 9.075 18.9001C9.18 18.1201 9.495 17.5951 9.84 17.2951C7.17 16.9951 4.38 15.9601 4.38 11.3701C4.38 10.0651 4.845 8.98512 5.61 8.14512C5.49 7.84512 5.07 6.61512 5.73 4.96512C5.73 4.96512 6.735 4.65012 9.03 6.19512C9.99 5.92512 11.01 5.79012 12.03 5.79012C13.05 5.79012 14.07 5.92512 15.03 6.19512C17.325 4.63512 18.33 4.96512 18.33 4.96512C18.99 6.61512 18.57 7.84512 18.45 8.14512C19.215 8.98512 19.68 10.0501 19.68 11.3701C19.68 15.9751 16.875 16.9951 14.205 17.2951C14.64 17.6701 15.015 18.3901 15.015 19.5151C15.015 21.1201 15 22.4101 15 22.8151C15 23.1301 15.225 23.5051 15.825 23.3851C18.2072 22.5808 20.2772 21.0498 21.7437 19.0075C23.2101 16.9652 23.9993 14.5144 24 12.0001C24 5.37012 18.63 0.00012207 12 0.00012207Z"
        fill="white"
      />
      </g>
      <defs>
      <clipPath id="clip0_1185_10256">
      <rect width="24" height="24" fill="white" />
      </clipPath>
      </defs>
    </symbol>

    <symbol viewBox="0 0 24 24" fill="none" id="discord-icon">
      <g clip-path="url(#clip0_1185_10249)">
      <path
        d="M20.3175 4.4921C18.7875 3.8021 17.1475 3.2921 15.4325 3.0021C15.4172 2.99916 15.4014 3.00105 15.3872 3.0075C15.3731 3.01395 15.3613 3.02464 15.3535 3.0381C15.1435 3.4071 14.9095 3.8881 14.7455 4.2681C12.9266 3.99633 11.0774 3.99633 9.25848 4.2681C9.07582 3.84696 8.86983 3.43632 8.64148 3.0381C8.63374 3.02448 8.62203 3.01355 8.60792 3.00676C8.5938 2.99997 8.57795 2.99764 8.56248 3.0001C6.84848 3.2901 5.20848 3.8001 3.67748 4.4911C3.66431 4.49662 3.65314 4.50604 3.64548 4.5181C0.533481 9.0931 -0.319519 13.5551 0.0994806 17.9611C0.100647 17.9719 0.103996 17.9823 0.109326 17.9918C0.114655 18.0012 0.121853 18.0095 0.130481 18.0161C1.94687 19.3385 3.97282 20.3459 6.12348 20.9961C6.13847 21.0007 6.15451 21.0007 6.16949 20.9961C6.18448 20.9914 6.19772 20.9824 6.20748 20.9701C6.67028 20.3512 7.08038 19.6945 7.43348 19.0071C7.43838 18.9977 7.44121 18.9874 7.44176 18.9768C7.44232 18.9662 7.4406 18.9556 7.43671 18.9457C7.43282 18.9359 7.42686 18.927 7.41923 18.9196C7.4116 18.9123 7.40248 18.9066 7.39248 18.9031C6.74649 18.6598 6.12057 18.3663 5.52048 18.0251C5.5097 18.0189 5.50061 18.0102 5.49404 17.9997C5.48746 17.9891 5.48361 17.9771 5.48281 17.9648C5.48202 17.9524 5.48432 17.94 5.48949 17.9287C5.49467 17.9174 5.50257 17.9076 5.51248 17.9001C5.63848 17.8071 5.76448 17.7101 5.88448 17.6131C5.89528 17.6044 5.90829 17.5988 5.92206 17.5971C5.93584 17.5953 5.94983 17.5974 5.96248 17.6031C9.88948 19.3671 14.1425 19.3671 18.0235 17.6031C18.0362 17.597 18.0503 17.5947 18.0643 17.5963C18.0782 17.5979 18.0915 17.6033 18.1025 17.6121C18.2225 17.7101 18.3475 17.8071 18.4745 17.9001C18.4845 17.9074 18.4925 17.9171 18.4979 17.9283C18.5032 17.9395 18.5057 17.9518 18.5051 17.9642C18.5045 17.9766 18.5008 17.9886 18.4945 17.9993C18.4881 18.0099 18.4791 18.0188 18.4685 18.0251C17.8705 18.3691 17.2485 18.6601 16.5955 18.9021C16.5855 18.9057 16.5763 18.9115 16.5687 18.9189C16.561 18.9264 16.5551 18.9354 16.5512 18.9453C16.5473 18.9553 16.5456 18.9659 16.5462 18.9766C16.5467 18.9872 16.5496 18.9976 16.5545 19.0071C16.9145 19.6941 17.3265 20.3481 17.7795 20.9691C17.7889 20.9818 17.802 20.9914 17.8171 20.9964C17.8321 21.0014 17.8483 21.0016 17.8635 20.9971C20.0178 20.3487 22.0471 19.3409 23.8655 18.0161C23.8744 18.0099 23.8818 18.0019 23.8873 17.9926C23.8928 17.9832 23.8963 17.9729 23.8975 17.9621C24.3975 12.8681 23.0595 8.4421 20.3485 4.5201C20.3418 4.50735 20.3308 4.49741 20.3175 4.4921ZM8.02048 15.2781C6.83848 15.2781 5.86348 14.2091 5.86348 12.8981C5.86348 11.5861 6.81948 10.5181 8.02048 10.5181C9.23048 10.5181 10.1965 11.5951 10.1775 12.8981C10.1775 14.2101 9.22148 15.2781 8.02048 15.2781ZM15.9955 15.2781C14.8125 15.2781 13.8385 14.2091 13.8385 12.8981C13.8385 11.5861 14.7935 10.5181 15.9955 10.5181C17.2055 10.5181 18.1715 11.5951 18.1525 12.8981C18.1525 14.2101 17.2065 15.2781 15.9955 15.2781Z"
        fill="white"
      />
      </g>
      <defs>
      <clipPath id="clip0_1185_10249">
      <rect width="24" height="24" fill="white" />
      </clipPath>
      </defs>
    </symbol>

    <symbol viewBox="0 0 202 201" fill="none" id="error-icon">
    <g clip-path="url(#clip0_1128_4386)">
    <path
        d="M101 200.2C156.228 200.2 201 155.428 201 100.2C201 44.9715 156.228 0.199951 101 0.199951C45.7715 0.199951 1 44.9715 1 100.2C1 155.428 45.7715 200.2 101 200.2Z"
        fill="#0D0D0D"
        stroke="white"
        stroke-width="0.4"
        stroke-miterlimit="10"
      />
    <path
        d="M101 179C144.63 179 180 143.63 180 100C180 56.3695 144.63 21 101 21C57.3695 21 22 56.3695 22 100C22 143.63 57.3695 179 101 179Z"
        fill="#0D0D0D"
        stroke="white"
        stroke-width="0.4"
        stroke-miterlimit="10"
      />
    <path
        d="M185.64 138.53C185.69 140.239 185.077 141.902 183.93 143.17C183.323 143.807 182.592 144.313 181.782 144.657C180.972 145.001 180.1 145.176 179.22 145.17H37.2202C36.3248 145.17 35.4381 144.993 34.611 144.65C33.7839 144.307 33.0327 143.804 32.4002 143.17C31.196 141.935 30.4847 140.303 30.4002 138.58C30.3505 137.417 30.6277 136.263 31.2002 135.25L98.0402 11.8999C98.5843 10.8838 99.3972 10.0368 100.39 9.45124C101.383 8.86575 102.518 8.56434 103.67 8.57992C104.844 8.57896 105.999 8.88249 107.021 9.46087C108.042 10.0393 108.897 10.8728 109.5 11.8799L170.36 111.8L184.63 135.2C184.97 135.762 185.233 136.367 185.41 137C185.543 137.5 185.62 138.013 185.64 138.53Z"
        fill="#FFDB7D"
        stroke="#020203"
        stroke-width="0.4"
        stroke-linecap="round"
        stroke-linejoin="round"
      />
    <g style="mix-blend-mode:screen">
    <g style="mix-blend-mode:screen">
    <path
            d="M157.321 90.37L102.501 145.2H37.2313C35.7393 145.191 34.2916 144.692 33.1113 143.78L130.501 46.3799L157.321 90.37Z"
            fill="white"
          />
    </g>
    </g>
    <path
        d="M37.231 145.2C36.3368 145.201 35.4513 145.025 34.6256 144.682C33.8 144.339 33.0506 143.835 32.421 143.2C31.209 141.966 30.4965 140.328 30.421 138.6C30.3754 137.443 30.645 136.296 31.201 135.28L98.041 11.9299C98.582 10.9105 99.394 10.0602 100.387 9.47258C101.381 8.88502 102.517 8.58304 103.671 8.59991C104.844 8.59872 105.997 8.90223 107.017 9.48073C108.037 10.0593 108.89 10.8929 109.491 11.8999L184.641 135.2C185.25 136.197 185.594 137.333 185.641 138.5C185.693 140.208 185.076 141.87 183.921 143.13C183.318 143.77 182.59 144.278 181.781 144.622C180.972 144.967 180.1 145.14 179.221 145.13H37.221L37.231 145.2Z"
        stroke="#020203"
        stroke-width="0.4"
        stroke-linecap="round"
        stroke-linejoin="round"
      />
    <path
        d="M183.13 143.87L171.29 154.81C170.063 155.928 168.46 156.543 166.8 156.53H25.25C24.3202 156.533 23.3992 156.35 22.5407 155.993C21.6822 155.636 20.9035 155.111 20.25 154.45L32.41 143.2C33.0405 143.837 33.7914 144.341 34.6189 144.685C35.4464 145.028 36.3341 145.203 37.23 145.2H179.23C180.64 145.193 182.009 144.726 183.13 143.87Z"
        fill="#FFCB45"
        stroke="#020203"
        stroke-width="0.4"
        stroke-linecap="round"
        stroke-linejoin="round"
      />
    <path
        d="M31.2102 135.26C30.6412 136.275 30.3643 137.427 30.4102 138.59C30.501 140.311 31.2114 141.942 32.4102 143.18L20.2702 154.45C19.0101 153.167 18.2662 151.466 18.1802 149.67C18.1365 148.481 18.4164 147.302 18.9902 146.26L85.6202 23.2599C85.9617 22.6259 86.4041 22.0517 86.9302 21.56L99.0702 10.36C98.3902 11.36 97.7502 12.43 97.1702 13.52L31.2102 135.26Z"
        fill="#FFCB45"
        stroke="#020203"
        stroke-width="0.4"
        stroke-linecap="round"
        stroke-linejoin="round"
      />
    <path
        d="M113.848 102.19L112.238 54.27L112.148 54.0799L111.958 54H98.7188L98.5387 54.0799L98.4688 54.27L100.079 102.19L100.158 102.38L100.348 102.46H113.588L113.768 102.38L113.848 102.19Z"
        fill="#0D0D0D"
        stroke="#0D0D0D"
        stroke-width="0.4"
        stroke-linecap="round"
        stroke-linejoin="round"
      />
    <path
        d="M114.448 120.681L113.968 106.541L113.898 106.381L113.718 106.311H100.478L100.318 106.381L100.258 106.541L100.728 120.681L100.808 120.851L100.968 120.921H114.208L114.378 120.851L114.448 120.681Z"
        fill="#0D0D0D"
        stroke="#0D0D0D"
        stroke-width="0.4"
        stroke-linecap="round"
        stroke-linejoin="round"
      />
    <path
        d="M160.626 56.074C160.547 54.0701 159.715 52.1697 158.297 50.7516C156.879 49.3335 154.978 48.5021 152.975 48.4229L143 48.0049L153.023 47.616C155.018 47.5447 156.913 46.7249 158.331 45.3197C159.748 43.9145 160.585 42.0271 160.674 40.0329L161.131 30L161.442 39.9163C161.505 41.9312 162.329 43.8473 163.749 45.2782C165.169 46.709 167.079 47.5479 169.093 47.6257L179 48.0049L169.035 48.384C167.03 48.4609 165.129 49.2917 163.71 50.7102C162.292 52.1288 161.461 54.0305 161.384 56.0351L161.005 66L160.626 56.074Z"
        fill="white"
      />
    <path
        d="M83.2102 182.122C83.1584 180.73 82.5841 179.409 81.6023 178.424C80.6204 177.438 79.3033 176.86 77.9145 176.805L71 176.545L77.9944 176.275C79.375 176.221 80.6852 175.65 81.6658 174.675C82.6465 173.7 83.2261 172.391 83.2902 171.008L83.6099 164L83.8197 170.888C83.8643 172.287 84.4367 173.617 85.4214 174.609C86.4062 175.601 87.7299 176.182 89.1255 176.235L96 176.505L89.0855 176.765C87.6965 176.822 86.3796 177.4 85.3965 178.385C84.4135 179.37 83.8363 180.69 83.7798 182.082L83.52 189L83.2102 182.122Z"
        fill="white"
      />
    <path
        d="M22.0488 58.3978L27.4823 69.2786L38.865 70.3807L33.4315 59.4999L22.0488 58.3978Z"
        fill="#2B52BF"
        stroke="#0D0D0D"
        stroke-width="0.4"
        stroke-linecap="round"
        stroke-linejoin="round"
      />
    <path
        d="M27.9954 48.6292L39.3782 49.7313L33.4296 59.5L22.0469 58.3979L27.9954 48.6292Z"
        fill="white"
        stroke="#0D0D0D"
        stroke-width="0.4"
        stroke-linecap="round"
        stroke-linejoin="round"
      />
    <path
        d="M38.8632 70.3807L44.8124 60.602L39.3783 49.7312L33.4297 59.4999L38.8632 70.3807Z"
        fill="#6879A9"
        stroke="#0D0D0D"
        stroke-width="0.4"
        stroke-linecap="round"
        stroke-linejoin="round"
      />
    <path
        d="M185.41 137.03C184.732 137.243 184.04 137.411 183.34 137.53C182.514 137.671 181.677 137.741 180.84 137.74C177.832 137.743 174.891 136.847 172.397 135.167C169.902 133.486 167.967 131.098 166.84 128.309C165.713 125.52 165.446 122.458 166.074 119.516C166.701 116.574 168.193 113.887 170.36 111.8L184.63 135.2C184.972 135.771 185.235 136.387 185.41 137.03Z"
        fill="#0D0D0D"
        stroke="#0D0D0D"
        stroke-width="0.4"
        stroke-linecap="round"
        stroke-linejoin="round"
      />
    <path
        d="M167.19 116.6C167.19 121.083 168.97 125.383 172.139 128.554C175.308 131.725 179.607 133.507 184.09 133.51C185.032 133.512 185.972 133.431 186.9 133.27C190.431 132.676 193.683 130.976 196.187 128.415C198.69 125.854 200.316 122.564 200.83 119.02C200.9 118.51 200.95 118.02 200.98 117.46C200.98 117.17 200.98 116.88 200.98 116.6C200.985 112.86 199.749 109.223 197.466 106.261C195.183 103.298 191.981 101.177 188.363 100.229C184.745 99.2807 180.915 99.5598 177.472 101.022C174.029 102.485 171.169 105.048 169.34 108.31C167.915 110.84 167.174 113.697 167.19 116.6Z"
        fill="#2B52BF"
        stroke="#0D0D0D"
        stroke-width="0.4"
        stroke-linecap="round"
        stroke-linejoin="round"
      />
    <path
        d="M169.18 110.72C169.177 114.46 170.414 118.095 172.698 121.057C174.981 124.019 178.182 126.141 181.8 127.089C185.418 128.038 189.248 127.761 192.691 126.301C196.135 124.841 198.997 122.28 200.83 119.02C200.942 118.218 200.999 117.41 201 116.6C201.005 112.86 199.769 109.223 197.486 106.261C195.203 103.298 192.001 101.177 188.383 100.229C184.765 99.2807 180.935 99.5598 177.492 101.022C174.049 102.485 171.189 105.048 169.36 108.31C169.239 109.108 169.178 109.913 169.18 110.72Z"
        fill="#396AF4"
        stroke="#0D0D0D"
        stroke-width="0.4"
        stroke-linecap="round"
        stroke-linejoin="round"
      />
    <path
        d="M193.31 107.699C193.922 106.431 192.504 104.478 190.142 103.336C187.78 102.195 185.369 102.298 184.756 103.566C184.143 104.834 185.561 106.787 187.923 107.928C190.285 109.07 192.697 108.967 193.31 107.699Z"
        fill="white"
        stroke="#0D0D0D"
        stroke-width="0.4"
        stroke-linecap="round"
        stroke-linejoin="round"
      />
    </g>
    <defs>
    <clipPath id="clip0_1128_4386">
    <rect width="202" height="201" fill="white" />
    </clipPath>
    </defs>
    </symbol>

    <symbol viewBox="0 0 17 16" fill="none" id="arrow-left-icon">
    <path
      d="M15.5 8H1.5M1.5 8L8.5 15M1.5 8L8.5 1"
      stroke="currentColor"
      stroke-width="2"
      stroke-linecap="round"
      stroke-linejoin="round"
    />
    </symbol>

    <symbol viewBox="0 0 132 32" fill="none" id="cruize-beta-logo-icon">
      <path
      d="M12.608 27.448C9.25867 27.448 6.47467 26.3387 4.256 24.12C2.05867 21.88 0.96 19.1067 0.96 15.8C0.96 12.4933 2.05867 9.73067 4.256 7.512C6.47467 5.272 9.25867 4.152 12.608 4.152C14.6133 4.152 16.4693 4.62133 18.176 5.56C19.8827 6.47733 21.2267 7.736 22.208 9.336L17.792 11.896C17.3013 11.0213 16.5973 10.3493 15.68 9.88C14.7627 9.38933 13.7387 9.144 12.608 9.144C10.624 9.144 9.03467 9.752 7.84 10.968C6.66667 12.184 6.08 13.7947 6.08 15.8C6.08 17.8053 6.66667 19.416 7.84 20.632C9.03467 21.848 10.624 22.456 12.608 22.456C13.7387 22.456 14.7627 22.2107 15.68 21.72C16.6187 21.2293 17.3227 20.5573 17.792 19.704L22.208 22.264C21.248 23.864 19.9147 25.1333 18.208 26.072C16.5013 26.9893 14.6347 27.448 12.608 27.448ZM29.56 13.848C29.8587 12.824 30.456 12.0453 31.352 11.512C32.2693 10.9573 33.272 10.68 34.36 10.68V16.12C33.1867 15.928 32.088 16.1307 31.064 16.728C30.0613 17.304 29.56 18.3173 29.56 19.768V27H24.76V11H29.56V13.848ZM46.9398 11H51.7397V27H46.9398V25.496C45.9798 26.7973 44.4544 27.448 42.3638 27.448C40.6571 27.448 39.2278 26.8613 38.0758 25.688C36.9451 24.5147 36.3798 22.8933 36.3798 20.824V11H41.1798V20.12C41.1798 21.0587 41.4358 21.784 41.9478 22.296C42.4811 22.7867 43.1531 23.032 43.9638 23.032C44.8811 23.032 45.6064 22.7547 46.1398 22.2C46.6731 21.6453 46.9398 20.824 46.9398 19.736V11ZM59.676 8.76C59.1213 9.31467 58.4493 9.592 57.66 9.592C56.8707 9.592 56.188 9.31467 55.612 8.76C55.0573 8.184 54.78 7.50133 54.78 6.712C54.78 5.92267 55.0573 5.25067 55.612 4.696C56.188 4.12 56.8707 3.832 57.66 3.832C58.4493 3.832 59.1213 4.12 59.676 4.696C60.252 5.25067 60.54 5.92267 60.54 6.712C60.54 7.50133 60.252 8.184 59.676 8.76ZM55.26 27V11H60.06V27H55.26ZM69.5245 22.52H75.8925V27H63.0925V23.8L69.1405 15.48H63.4125V11H75.5725V14.2L69.5245 22.52ZM82.0793 20.92C82.6339 22.4133 83.9139 23.16 85.9193 23.16C87.2206 23.16 88.2446 22.7547 88.9913 21.944L92.8313 24.152C91.2526 26.3493 88.9273 27.448 85.8553 27.448C83.1673 27.448 81.0126 26.648 79.3913 25.048C77.7913 23.448 76.9913 21.432 76.9913 19C76.9913 16.5893 77.7806 14.584 79.3593 12.984C80.9593 11.3627 83.0073 10.552 85.5033 10.552C87.8286 10.552 89.7593 11.3627 91.2953 12.984C92.8526 14.584 93.6313 16.5893 93.6313 19C93.6313 19.6827 93.5673 20.3227 93.4393 20.92H82.0793ZM81.9833 17.336H88.8633C88.3939 15.6507 87.2633 14.808 85.4713 14.808C83.6153 14.808 82.4526 15.6507 81.9833 17.336Z"
      fill="#396AF4"
    />
      <g clip-path="url(#clip0_1511_12717)">
      <path
        d="M102.41 5.16347H105.493C105.718 5.13518 105.946 5.1529 106.164 5.21554C106.381 5.27817 106.584 5.38439 106.758 5.52761C106.932 5.67083 107.075 5.84801 107.178 6.04817C107.28 6.24832 107.34 6.4672 107.354 6.69125C107.36 6.97741 107.281 7.2591 107.128 7.50162C106.975 7.74413 106.753 7.93687 106.49 8.05606C106.815 8.17284 107.097 8.38407 107.299 8.66211C107.5 8.94015 107.613 9.27205 107.621 9.6144C107.607 9.8611 107.54 10.1021 107.427 10.3222C107.313 10.5422 107.155 10.7364 106.962 10.8925C106.768 11.0487 106.544 11.1632 106.304 11.229C106.064 11.2948 105.812 11.3103 105.565 11.2746H102.41V5.16347ZM105.195 7.62828C105.689 7.62828 106.038 7.3431 106.038 6.94588C106.038 6.54865 105.689 6.28384 105.195 6.28384H103.726V7.62828H105.195ZM105.401 10.1542C105.513 10.1767 105.629 10.1743 105.739 10.1471C105.85 10.12 105.954 10.0687 106.042 9.99706C106.131 9.92541 106.202 9.83518 106.251 9.73289C106.3 9.6306 106.325 9.51881 106.325 9.4056C106.325 9.29239 106.3 9.1806 106.251 9.07831C106.202 8.97602 106.131 8.88578 106.042 8.81414C105.954 8.7425 105.85 8.69123 105.739 8.66405C105.629 8.63687 105.513 8.63446 105.401 8.65699H103.726V10.1848L105.401 10.1542Z"
        fill="#396AF4"
      />
      <path
        d="M109.955 6.34554V7.56777H113.038V8.74925H109.955V10.0937H113.377V11.2752H108.629V5.16406H113.377V6.34554H109.955Z"
        fill="#396AF4"
      />
      <path
        d="M115.977 6.34554H114.055V5.16406H119.194V6.34554H117.302V11.2752H115.977V6.34554Z"
        fill="#396AF4"
      />
      <path
        d="M123.777 10.3076H121.023L120.632 11.2752H119.152L121.66 5.16406H123.14L125.658 11.2752H124.168L123.777 10.3076ZM123.315 9.16684L122.4 6.93629L121.485 9.16684H123.315Z"
        fill="#396AF4"
      />
      <path
        d="M103.284 21.3889C103.149 21.3923 103.015 21.3644 102.893 21.3074C102.706 21.231 102.545 21.1012 102.432 20.9345C102.318 20.7677 102.257 20.5715 102.256 20.3704V16.2963H98.145C97.8724 16.2963 97.611 16.189 97.4182 15.998C97.2255 15.807 97.1172 15.5479 97.1172 15.2778V1.01852C97.1172 0.748391 97.2255 0.489327 97.4182 0.298317C97.611 0.107308 97.8724 0 98.145 0H128.978C129.251 0 129.512 0.107308 129.705 0.298317C129.898 0.489327 130.006 0.748391 130.006 1.01852V15.2778C130.006 15.5479 129.898 15.807 129.705 15.998C129.512 16.189 129.251 16.2963 128.978 16.2963H108.854L104.014 21.0935C103.918 21.1879 103.804 21.2626 103.678 21.3133C103.553 21.364 103.419 21.3897 103.284 21.3889V21.3889ZM99.1727 14.2593H103.284C103.556 14.2593 103.818 14.3666 104.011 14.5576C104.203 14.7486 104.312 15.0077 104.312 15.2778V17.9157L107.703 14.5546C107.895 14.3665 108.153 14.2604 108.423 14.2593H127.951V2.03704H99.1727V14.2593Z"
        fill="#396AF4"
      />
      </g>
      <defs>
      <clipPath id="clip0_1511_12717">
      <rect width="37" height="22" fill="white" transform="translate(95)" />
      </clipPath>
      </defs>
    </symbol>

    <symbol viewBox="0 0 16 16" fill="none" id="switch-network-icon">
      <path
      d="M4.98828 6.23145H1.98828V3.23145"
      stroke="currentColor"
      stroke-width="1.5"
      stroke-linecap="round"
      stroke-linejoin="round"
    />
      <path
      d="M11.8883 4.11289C11.378 3.6019 10.7721 3.19652 10.105 2.91993C9.43794 2.64334 8.7229 2.50098 8.00078 2.50098C7.27866 2.50098 6.56362 2.64334 5.89656 2.91993C5.22951 3.19652 4.62353 3.6019 4.11328 4.11289L1.98828 6.23164"
      stroke="currentColor"
      stroke-width="1.5"
      stroke-linecap="round"
      stroke-linejoin="round"
    />
      <path
      d="M11.0117 9.76855H14.0117V12.7686"
      stroke="currentColor"
      stroke-width="1.5"
      stroke-linecap="round"
      stroke-linejoin="round"
    />
      <path
      d="M4.11328 11.8873C4.62353 12.3983 5.22951 12.8037 5.89656 13.0803C6.56362 13.3569 7.27866 13.4992 8.00078 13.4992C8.7229 13.4992 9.43794 13.3569 10.105 13.0803C10.7721 12.8037 11.378 12.3983 11.8883 11.8873L14.0133 9.76855"
      stroke="currentColor"
      stroke-width="1.5"
      stroke-linecap="round"
      stroke-linejoin="round"
    />
    </symbol>

    <symbol viewBox="0 0 56 56" fill="none" id="wrong-network-icon">
      <rect x="4" y="4" width="48" height="48" rx="24" fill="#FEF0C7" />
      <path
      d="M27.9988 24.0002V28.0002M27.9988 32.0002H28.0088M26.2888 18.8602L17.8188 33.0002C17.6442 33.3026 17.5518 33.6455 17.5508 33.9947C17.5498 34.3439 17.6403 34.6873 17.8132 34.9907C17.9862 35.2941 18.2355 35.547 18.5365 35.7241C18.8375 35.9012 19.1796 35.9964 19.5288 36.0002H36.4688C36.818 35.9964 37.1601 35.9012 37.4611 35.7241C37.7621 35.547 38.0114 35.2941 38.1844 34.9907C38.3573 34.6873 38.4478 34.3439 38.4468 33.9947C38.4458 33.6455 38.3534 33.3026 38.1788 33.0002L29.7088 18.8602C29.5305 18.5663 29.2795 18.3233 28.98 18.1547C28.6805 17.9861 28.3425 17.8975 27.9988 17.8975C27.6551 17.8975 27.3171 17.9861 27.0176 18.1547C26.7181 18.3233 26.4671 18.5663 26.2888 18.8602Z"
      stroke="#DC6803"
      stroke-width="2"
      stroke-linecap="round"
      stroke-linejoin="round"
    />
      <rect
      x="4"
      y="4"
      width="48"
      height="48"
      rx="24"
      stroke="#FFFAEB"
      stroke-opacity="0.21"
      stroke-width="8"
    />
    </symbol>

    <symbol viewBox="0 0 93 92" fill="none" id="asset-protect-container-icon">
      <rect x="5.5" y="5" width="82" height="82" rx="41" fill="#7F91EB" />
      <rect
      x="5.5"
      y="5"
      width="82"
      height="82"
      rx="41"
      stroke="#ECFDF3"
      stroke-opacity="0.2"
      stroke-width="10"
    />
    </symbol>

    <symbol viewBox="0 0 93 92" fill="none" id="protect-lock-icon">
      <rect x="5.5" y="5" width="82" height="82" rx="41" fill="#9EFFC0" />
      <path
      fill-rule="evenodd"
      clip-rule="evenodd"
      d="M46.5 25C44.6888 25 41.6621 25.6956 38.814 26.47C35.9003 27.2575 32.9629 28.1894 31.2356 28.7537C30.5135 28.9922 29.8732 29.4296 29.3885 30.0156C28.9037 30.6016 28.5941 31.3124 28.4951 32.0665C26.9306 43.8186 30.561 52.5284 34.9658 58.2902C36.8337 60.755 39.0608 62.9256 41.5729 64.7294C42.5861 65.446 43.5259 65.9946 44.3239 66.37C45.0589 66.7165 45.849 67 46.5 67C47.151 67 47.9385 66.7165 48.6761 66.37C49.6382 65.9024 50.5585 65.3535 51.4271 64.7294C53.9392 62.9256 56.1664 60.7551 58.0343 58.2902C62.439 52.5284 66.0694 43.8186 64.5049 32.0665C64.4061 31.3121 64.0966 30.6008 63.6118 30.0144C63.1271 29.4279 62.4868 28.9901 61.7644 28.7511C59.257 27.929 56.7301 27.1675 54.186 26.4674C51.3379 25.6982 48.3113 25 46.5 25ZM52.1333 38.5082C52.3797 38.2618 52.714 38.1233 53.0625 38.1233C53.4111 38.1233 53.7453 38.2618 53.9918 38.5082C54.2382 38.7547 54.3767 39.089 54.3767 39.4375C54.3767 39.786 54.2382 40.1203 53.9918 40.3668L46.1168 48.2418C45.9948 48.364 45.85 48.461 45.6906 48.5271C45.5311 48.5933 45.3602 48.6273 45.1875 48.6273C45.0149 48.6273 44.8439 48.5933 44.6845 48.5271C44.525 48.461 44.3802 48.364 44.2583 48.2418L40.3208 44.3043C40.1987 44.1822 40.1019 44.0373 40.0359 43.8779C39.9698 43.7185 39.9359 43.5476 39.9359 43.375C39.9359 43.2024 39.9698 43.0315 40.0359 42.8721C40.1019 42.7127 40.1987 42.5678 40.3208 42.4457C40.4428 42.3237 40.5877 42.2269 40.7471 42.1609C40.9065 42.0948 41.0774 42.0608 41.25 42.0608C41.4226 42.0608 41.5935 42.0948 41.7529 42.1609C41.9124 42.2269 42.0572 42.3237 42.1793 42.4457L45.1875 45.4566L52.1333 38.5082Z"
      fill="#039855"
      fill-opacity="0.79"
    />
      <rect
      x="5.5"
      y="5"
      width="82"
      height="82"
      rx="41"
      stroke="#ECFDF3"
      stroke-opacity="0.2"
      stroke-width="10"
    />
    </symbol>

    <symbol viewBox="0 0 10 11" fill="none" id="right-filled-arrow">
      <path
      d="M9.75 5.06699C10.0833 5.25944 10.0833 5.74056 9.75 5.93301L1.5 10.6962C1.16667 10.8886 0.749999 10.648 0.75 10.2631L0.75 0.736859C0.75 0.351959 1.16667 0.111397 1.5 0.303847L9.75 5.06699Z"
      fill="white"
    />
    </symbol>

    <svg viewBox="0 0 75 75" fill="none" id="timeline-1-icon">
    <path
      d="M40.3867 46H37V32.9453L32.957 34.1992V31.4453L40.0234 28.9141H40.3867V46Z"
      fill="currentColor"
    />
    <circle
      cx="37.5"
      cy="37.5"
      r="36.5"
      stroke="currentColor"
      stroke-width="2"
    />
    </svg>

    <symbol viewBox="0 0 75 75" fill="none" id="timeline-2-icon">
    <path
      d="M43.8438 43.3633V46H32.1719V43.75L37.6914 37.832C38.2461 37.2148 38.6836 36.6719 39.0039 36.2031C39.3242 35.7266 39.5547 35.3008 39.6953 34.9258C39.8438 34.543 39.918 34.1797 39.918 33.8359C39.918 33.3203 39.832 32.8789 39.6602 32.5117C39.4883 32.1367 39.2344 31.8477 38.8984 31.6445C38.5703 31.4414 38.1641 31.3398 37.6797 31.3398C37.1641 31.3398 36.7188 31.4648 36.3438 31.7148C35.9766 31.9648 35.6953 32.3125 35.5 32.7578C35.3125 33.2031 35.2188 33.707 35.2188 34.2695H31.832C31.832 33.2539 32.0742 32.3242 32.5586 31.4805C33.043 30.6289 33.7266 29.9531 34.6094 29.4531C35.4922 28.9453 36.5391 28.6914 37.75 28.6914C38.9453 28.6914 39.9531 28.8867 40.7734 29.2773C41.6016 29.6602 42.2266 30.2148 42.6484 30.9414C43.0781 31.6602 43.293 32.5195 43.293 33.5195C43.293 34.082 43.2031 34.6328 43.0234 35.1719C42.8438 35.7031 42.5859 36.2344 42.25 36.7656C41.9219 37.2891 41.5234 37.8203 41.0547 38.3594C40.5859 38.8984 40.0664 39.457 39.4961 40.0352L36.5312 43.3633H43.8438Z"
      fill="currentColor"
    />
    <circle
      cx="37.5"
      cy="37.5"
      r="36.5"
      stroke="currentColor"
      stroke-width="2"
    />
    </symbol>

    <symbol viewBox="0 0 75 75" fill="none" id="timeline-3-icon">
    <path
      d="M35.6289 36.0039H37.4336C38.0117 36.0039 38.4883 35.9062 38.8633 35.7109C39.2383 35.5078 39.5156 35.2266 39.6953 34.8672C39.8828 34.5 39.9766 34.0742 39.9766 33.5898C39.9766 33.1523 39.8906 32.7656 39.7188 32.4297C39.5547 32.0859 39.3008 31.8203 38.957 31.6328C38.6133 31.4375 38.1797 31.3398 37.6562 31.3398C37.2422 31.3398 36.8594 31.4219 36.5078 31.5859C36.1562 31.75 35.875 31.9805 35.6641 32.2773C35.4531 32.5742 35.3477 32.9336 35.3477 33.3555H31.9609C31.9609 32.418 32.2109 31.6016 32.7109 30.9062C33.2188 30.2109 33.8984 29.668 34.75 29.2773C35.6016 28.8867 36.5391 28.6914 37.5625 28.6914C38.7188 28.6914 39.7305 28.8789 40.5977 29.2539C41.4648 29.6211 42.1406 30.1641 42.625 30.8828C43.1094 31.6016 43.3516 32.4922 43.3516 33.5547C43.3516 34.0938 43.2266 34.6172 42.9766 35.125C42.7266 35.625 42.3672 36.0781 41.8984 36.4844C41.4375 36.8828 40.875 37.2031 40.2109 37.4453C39.5469 37.6797 38.8008 37.7969 37.9727 37.7969H35.6289V36.0039ZM35.6289 38.5703V36.8242H37.9727C38.9023 36.8242 39.7188 36.9297 40.4219 37.1406C41.125 37.3516 41.7148 37.6562 42.1914 38.0547C42.668 38.4453 43.0273 38.9102 43.2695 39.4492C43.5117 39.9805 43.6328 40.5703 43.6328 41.2188C43.6328 42.0156 43.4805 42.7266 43.1758 43.3516C42.8711 43.9688 42.4414 44.4922 41.8867 44.9219C41.3398 45.3516 40.6992 45.6797 39.9648 45.9062C39.2305 46.125 38.4297 46.2344 37.5625 46.2344C36.8438 46.2344 36.1367 46.1367 35.4414 45.9414C34.7539 45.7383 34.1289 45.4375 33.5664 45.0391C33.0117 44.6328 32.5664 44.125 32.2305 43.5156C31.9023 42.8984 31.7383 42.168 31.7383 41.3242H35.125C35.125 41.7617 35.2344 42.1523 35.4531 42.4961C35.6719 42.8398 35.9727 43.1094 36.3555 43.3047C36.7461 43.5 37.1797 43.5977 37.6562 43.5977C38.1953 43.5977 38.6562 43.5 39.0391 43.3047C39.4297 43.1016 39.7266 42.8203 39.9297 42.4609C40.1406 42.0938 40.2461 41.668 40.2461 41.1836C40.2461 40.5586 40.1328 40.0586 39.9062 39.6836C39.6797 39.3008 39.3555 39.0195 38.9336 38.8398C38.5117 38.6602 38.0117 38.5703 37.4336 38.5703H35.6289Z"
      fill="currentColor"
    />
    <circle
      cx="37.5"
      cy="37.5"
      r="36.5"
      stroke="currentColor"
      stroke-width="2"
    />
    </symbol>
    
    <symbol viewBox="0 0 24 24" fill="none" id="top-right-arrow">
    <path
      d="M6 18L18 6"
      stroke="currentColor"
      stroke-width="2"
      stroke-linecap="round"
      stroke-linejoin="round"
    />
    <path
      d="M8.25 6H18V15.75"
      stroke="currentColor"
      stroke-width="2"
      stroke-linecap="round"
      stroke-linejoin="round"
    />
    </symbol>

</svg>
