<?xml version="1.0" encoding="utf-8" ?>
<svg xmlns="http://www.w3.org/2000/svg">

    <symbol viewBox="0 0 20 20" fill="none" id="connect-wallet">
    <path
      d="M16 5.99999H3.5V5.49999L14.5 4.61999V5.49999H16V3.99999C16 2.89999 15.109 2.12799 14.021 2.28299L3.98 3.71699C2.891 3.87299 2 4.89999 2 5.99999V16C2 16.5304 2.21071 17.0391 2.58579 17.4142C2.96086 17.7893 3.46957 18 4 18H16C16.5304 18 17.0391 17.7893 17.4142 17.4142C17.7893 17.0391 18 16.5304 18 16V7.99999C18 7.46955 17.7893 6.96085 17.4142 6.58577C17.0391 6.2107 16.5304 5.99999 16 5.99999ZM14.5 13.006C14.303 13.0059 14.1078 12.967 13.9258 12.8916C13.7438 12.8161 13.5784 12.7055 13.4391 12.5661C13.2998 12.4268 13.1894 12.2613 13.114 12.0792C13.0387 11.8972 12.9999 11.702 13 11.505C13.0001 11.3079 13.0389 11.1128 13.1144 10.9308C13.1899 10.7488 13.3005 10.5834 13.4398 10.4441C13.5792 10.3048 13.7447 10.1944 13.9267 10.119C14.1088 10.0437 14.304 10.0049 14.501 10.005C14.899 10.0051 15.2806 10.1633 15.5619 10.4448C15.8432 10.7263 16.0011 11.108 16.001 11.506C16.0009 11.9039 15.8427 12.2855 15.5612 12.5669C15.2797 12.8482 14.898 13.0061 14.5 13.006Z"
      fill="black"
    />
    </symbol>

    <symbol viewBox="0 0 312 261" fill="none" id="homepage-logo">
    <path
      d="M118.428 76.0204L91.1314 60.3895L118.19 44.7075H87.6702L103.237 18.1726L76.1106 33.7181V2.61004L60.6121 29.3838L44.8582 2.55884V33.7181L18.1068 18.2238L33.3666 44.7075H2.55737L29.786 60.3895L2.79608 76.0204H33.3666L17.7488 102.555L44.8582 87.1292V118.135L60.6121 91.6683L76.1106 118.169V87.1292L103.356 103.101L87.6702 76.0204H118.428Z"
      fill="#FF784B"
      stroke="#0D0D0D"
      stroke-width="0.5"
      stroke-linejoin="round"
    />
    <path
      d="M272.013 169.737L112.699 192.313L81.0719 40.5433L240.403 17.9673L272.013 169.737Z"
      fill="white"
      stroke="#0D0D0D"
      stroke-width="0.5"
      stroke-linecap="round"
      stroke-linejoin="round"
    />
    <path
      d="M249.609 126.583L116.364 145.473L96.8082 51.6022L230.053 32.7294L249.609 126.583Z"
      fill="#0D0D0D"
      stroke="#0D0D0D"
      stroke-width="0.5"
      stroke-linecap="round"
      stroke-linejoin="round"
    />
    <g style="mix-blend-mode:screen">
    <g style="mix-blend-mode:screen">
    <path
          d="M207.566 35.9202L174.609 137.214L228.459 129.647L241.246 86.1471L230.055 32.7294L207.566 35.9202Z"
          fill="white"
        />
    </g>
    </g>
    <path
      d="M272.031 169.721L230.752 222.159L71.4891 244.803L112.733 192.365L272.031 169.721Z"
      fill="#FF784B"
      stroke="#0D0D0D"
      stroke-width="0.5"
      stroke-linejoin="round"
    />
    <path
      d="M117.268 200.281L252.183 181.169L226.166 214.223L91.2838 233.335L117.268 200.281Z"
      fill="#FF784B"
      stroke="#0D0D0D"
      stroke-width="0.5"
      stroke-linejoin="round"
    />
    <path
      d="M81.0727 40.5269L39.8291 92.9654L71.4567 244.752L112.683 192.313L81.0727 40.5269Z"
      fill="#396AF4"
      stroke="#0D0D0D"
      stroke-width="0.5"
      stroke-linejoin="round"
    />
    <path
      d="M89.4235 113.954L59.1782 152.399L50.0911 108.715L80.3193 70.2865L89.4235 113.954Z"
      fill="#396AF4"
      stroke="#0D0D0D"
      stroke-width="0.5"
      stroke-linejoin="round"
    />
    <path
      d="M254.485 150.01L121.241 168.883"
      stroke="#0D0D0D"
      stroke-width="0.5"
      stroke-linecap="round"
      stroke-linejoin="round"
    />
    <path
      d="M135.495 161.563L120.168 163.747L118.429 155.369L133.739 153.201L135.495 161.563Z"
      fill="#396AF4"
      stroke="#0D0D0D"
      stroke-width="0.5"
      stroke-linecap="round"
      stroke-linejoin="round"
    />
    <path
      d="M155.922 158.68L140.611 160.864L138.872 152.468L154.166 150.301H154.2L155.922 158.68Z"
      fill="#396AF4"
      stroke="#0D0D0D"
      stroke-width="0.5"
      stroke-linecap="round"
      stroke-linejoin="round"
    />
    <path
      d="M249.609 126.583L116.364 145.473L96.8082 51.6022L230.053 32.7294L249.609 126.583Z"
      stroke="#0D0D0D"
      stroke-width="0.5"
      stroke-linecap="round"
      stroke-linejoin="round"
    />
    <path
      d="M251.946 68.1156C264.123 61.5868 272.969 54.3817 271.706 52.0224C270.443 49.6632 259.548 53.0434 247.373 59.5722C235.197 66.1008 226.35 73.306 227.613 75.6652C228.876 78.0244 239.77 74.6445 251.946 68.1156Z"
      fill="white"
      stroke="#0D0D0D"
      stroke-width="0.5"
      stroke-linecap="round"
      stroke-linejoin="round"
    />
    <path
      d="M242.448 91.1458C251.245 86.4284 257.638 81.2237 256.727 79.5206C255.814 77.8177 247.944 80.2616 239.146 84.9791C230.348 89.6965 223.955 94.9011 224.867 96.6043C225.778 98.3072 233.649 95.8633 242.448 91.1458Z"
      fill="white"
      stroke="#0D0D0D"
      stroke-width="0.5"
      stroke-linecap="round"
      stroke-linejoin="round"
    />
    <path
      d="M308.261 182.672C309.64 187.636 309.813 192.856 308.773 197.9C307.732 202.945 305.507 207.669 302.277 211.681C291.367 224.957 270.906 222.807 261.067 221.766C219.756 217.415 184.343 231.459 155.273 245.776C138.104 254.308 122.47 258.436 108.489 258.436C99.7712 258.533 91.1424 256.673 83.2378 252.994C57.3221 240.742 49.718 212.313 49.0362 209.599L35.6859 170.249L42.1819 168.048L55.5659 207.62C55.5757 207.728 55.5757 207.836 55.5659 207.944C55.5659 208.217 62.3862 235.759 86.1194 246.902C103.527 255.11 125.743 252.686 152.154 239.701C182.161 224.94 218.648 210.47 261.681 215.026C275.509 216.476 289.354 216.561 296.888 207.398C299.799 203.725 301.576 199.284 302.006 194.617C302.727 187.833 301.039 181.011 297.234 175.35C293.431 169.688 287.754 165.55 281.204 163.662C277.734 162.701 274.148 162.218 270.547 162.229L269.049 154.994C269.049 154.994 299.771 152.554 308.261 182.672Z"
      fill="#FFDF0D"
      stroke="#0D0D0D"
      stroke-width="0.5"
      stroke-linejoin="round"
    />
    <path
      d="M261.786 215.025C246.141 213.401 230.344 214.126 214.915 217.176C215.226 219.465 215.839 221.703 216.739 223.831C231.337 220.989 246.275 220.322 261.067 221.851L265.144 222.261C265.914 220.058 266.389 217.763 266.558 215.435C264.972 215.333 263.387 215.196 261.786 215.025Z"
      fill="#0D0D0D"
      stroke="#0D0D0D"
      stroke-width="0.5"
      stroke-linecap="round"
      stroke-linejoin="round"
    />
    <path
      d="M246.182 239.787C260.456 239.787 272.028 228.166 272.028 213.832C272.028 199.498 260.456 187.877 246.182 187.877C231.906 187.877 220.334 199.498 220.334 213.832C220.334 228.166 231.906 239.787 246.182 239.787Z"
      fill="#396AF4"
      stroke="#0D0D0D"
      stroke-width="0.5"
      stroke-linejoin="round"
    />
    <path
      d="M238.115 206.201C240.949 203.346 241.697 199.492 239.787 197.593C237.876 195.693 234.03 196.467 231.196 199.322C228.363 202.177 227.615 206.031 229.525 207.931C231.435 209.83 235.282 209.056 238.115 206.201Z"
      fill="white"
      stroke="#0D0D0D"
      stroke-width="0.5"
      stroke-linecap="round"
      stroke-linejoin="round"
    />
    <path
      d="M55.5467 208.251C55.5467 208.148 55.5469 208.046 55.4618 207.944L43.3567 172.109L36.9121 174.293L48.9489 209.923C49.0683 210.418 49.4261 211.732 50.057 213.643C52.2239 212.819 54.2892 211.749 56.2119 210.452C55.7687 209.138 55.5467 208.302 55.5467 208.251Z"
      fill="#0D0D0D"
      stroke="#0D0D0D"
      stroke-width="0.5"
      stroke-linecap="round"
      stroke-linejoin="round"
    />
    <path
      d="M65.5067 195.419L54.9698 164.277L22.899 175.147L33.4357 206.306C34.9532 210.811 43.3757 212.04 52.1905 209.036C61.0055 206.033 67.024 199.941 65.5067 195.419Z"
      fill="#FFDF0D"
      stroke="#0D0D0D"
      stroke-width="0.5"
      stroke-linejoin="round"
    />
    <path
      d="M41.5901 177.714C50.4445 174.708 56.3817 168.61 54.8511 164.094C53.3202 159.578 44.9011 158.354 36.0467 161.361C27.1923 164.367 21.2554 170.465 22.7861 174.981C24.3169 179.497 32.7357 180.721 41.5901 177.714Z"
      fill="white"
      stroke="#0D0D0D"
      stroke-width="0.5"
      stroke-linejoin="round"
    />
    <path
      d="M33.9735 173.399C36.1224 172.669 37.563 171.188 37.1909 170.091C36.8191 168.993 34.7752 168.695 32.6263 169.425C30.4773 170.154 29.0372 171.636 29.4091 172.733C29.7812 173.83 31.8245 174.128 33.9735 173.399Z"
      fill="#0D0D0D"
      stroke="#0D0D0D"
      stroke-width="0.5"
      stroke-linecap="round"
      stroke-linejoin="round"
    />
    <path
      d="M45.0122 169.659C47.1611 168.929 48.6017 167.448 48.2299 166.35C47.8578 165.253 45.8139 164.955 43.6649 165.685C41.5162 166.414 40.0759 167.895 40.4478 168.993C40.8199 170.09 42.8632 170.388 45.0122 169.659Z"
      fill="#0D0D0D"
      stroke="#0D0D0D"
      stroke-width="0.5"
      stroke-linecap="round"
      stroke-linejoin="round"
    />
    </symbol>

    <symbol viewBox="0 0 24 24" fill="none" id="top-right-arrow">
    <path
      d="M6 18L18 6"
      stroke="black"
      stroke-width="2"
      stroke-linecap="round"
      stroke-linejoin="round"
    />
    <path
      d="M8.25 6H18V15.75"
      stroke="black"
      stroke-width="2"
      stroke-linecap="round"
      stroke-linejoin="round"
    />
    </symbol>

    <symbol viewBox="0 0 42 22" fill="none" id="cruize-footer-icon">
    <path
      fill-rule="evenodd"
      clip-rule="evenodd"
      d="M14.2344 0.122478C11.5737 0.365963 8.38305 1.1341 6.23267 2.04892L5.71411 2.26947L6.34721 2.38953C6.69545 2.45568 7.38698 2.46137 7.88419 2.40226C8.77681 2.29609 8.79006 2.30112 8.96186 2.79964C9.17322 3.41304 8.95789 3.42275 11.026 2.7077C13.0312 2.01459 14.0134 1.90441 14.2933 2.34147C14.7048 2.98384 14.3641 3.21025 11.7084 4.05943C10.6379 4.40172 9.73002 4.73395 9.69112 4.79776C9.57973 4.97995 10.4929 7.99253 10.6597 7.99287C10.7418 7.99303 11.7235 7.61675 12.8412 7.15675C17.3605 5.29678 23.8727 3.37 27.8825 2.7067C28.88 2.54159 29.6249 2.38401 29.5376 2.35638C29.4504 2.32875 27.2039 1.81448 24.5452 1.21347C19.2586 0.0183187 17.4566 -0.172417 14.2344 0.122478ZM36.6618 2.58161C27.0081 3.43163 14.1447 7.3721 2.02757 13.1915L0 14.1652V16.1031C0 17.1688 0.0637236 18.0407 0.141682 18.0407C0.21964 18.0407 0.983165 17.6718 1.83822 17.2208C4.57999 15.7748 7.17545 15.0692 10.3447 14.9076C12.6719 14.789 14.4058 15.0214 18.124 15.9502C24.999 17.6676 29.4132 17.9448 33.6189 16.9231L34.7138 16.657L37.1775 11.871C38.5324 9.23876 40.1719 6.04599 40.8205 4.77599L42 2.46707L39.6619 2.4952C38.376 2.51077 37.0259 2.54962 36.6618 2.58161ZM23.0845 8.32259C24.0106 9.35782 22.5348 10.8509 21.5116 9.91395C21.1122 9.54839 21.0857 8.7178 21.46 8.29948C21.8268 7.88955 22.7083 7.9021 23.0845 8.32259ZM19.7325 9.76491C19.9738 10.3008 19.6184 11.1463 19.0961 11.2789C18.0942 11.5334 17.3239 10.7891 17.642 9.87393C17.9654 8.94336 19.3304 8.87219 19.7325 9.76491ZM15.9797 10.5813C17.0601 11.6741 15.5656 13.209 14.4519 12.1505C14.2413 11.9503 14.0689 11.6076 14.0689 11.3893C14.0689 10.8984 14.7609 10.1702 15.2275 10.1702C15.4178 10.1702 15.7563 10.3552 15.9797 10.5813ZM9.17985 15.8825C7.1963 16.0937 4.81536 16.7603 3.09895 17.5851C1.67668 18.2685 -0.490424 19.5626 0.248274 19.2875C5.70865 17.2528 10.8474 17.0154 16.4563 18.5384C17.4646 18.8122 18.8481 19.1912 19.5309 19.3806C26.1409 21.2137 33.3005 20.188 37.8618 16.7543C38.8476 16.0121 39.1912 15.5612 38.3727 16.084C37.6325 16.5567 34.925 17.5531 33.3983 17.9148C32.0748 18.2283 31.3686 18.279 28.3032 18.2814C24.2387 18.2845 22.8821 18.0913 17.7767 16.7821C15.1851 16.1176 11.944 15.6276 10.7585 15.7213C10.622 15.732 9.91159 15.8045 9.17985 15.8825ZM6.78615 18.8946C4.80509 19.077 2.79258 19.7078 1.22366 20.638C0.312329 21.1784 0.300908 21.2774 1.18691 20.9612C4.59919 19.7431 8.61858 19.7739 12.993 21.0515C16.8507 22.1783 20.039 22.2974 23.0895 21.4289L24.0826 21.1461L23.3377 21.0275C22.9281 20.9624 21.5129 20.8262 20.1929 20.7249C17.1241 20.4895 16.2394 20.3475 12.9102 19.5562C9.94983 18.8527 8.70316 18.7179 6.78615 18.8946ZM12.993 18.8809C13.715 19.1265 17.5713 19.9116 17.6526 19.8293C17.7632 19.7175 14.4057 18.9077 13.4068 18.8052C12.6549 18.728 12.5829 18.7412 12.993 18.8809Z"
      fill="white"
    />
    </symbol>



</svg>
