<?xml version="1.0" encoding="utf-8" ?>
<svg xmlns="http://www.w3.org/2000/svg">

    <symbol viewBox="0 0 20 20" fill="none" id="connect-wallet-black">
    <path
      d="M16 5.99999H3.5V5.49999L14.5 4.61999V5.49999H16V3.99999C16 2.89999 15.109 2.12799 14.021 2.28299L3.98 3.71699C2.891 3.87299 2 4.89999 2 5.99999V16C2 16.5304 2.21071 17.0391 2.58579 17.4142C2.96086 17.7893 3.46957 18 4 18H16C16.5304 18 17.0391 17.7893 17.4142 17.4142C17.7893 17.0391 18 16.5304 18 16V7.99999C18 7.46955 17.7893 6.96085 17.4142 6.58577C17.0391 6.2107 16.5304 5.99999 16 5.99999ZM14.5 13.006C14.303 13.0059 14.1078 12.967 13.9258 12.8916C13.7438 12.8161 13.5784 12.7055 13.4391 12.5661C13.2998 12.4268 13.1894 12.2613 13.114 12.0792C13.0387 11.8972 12.9999 11.702 13 11.505C13.0001 11.3079 13.0389 11.1128 13.1144 10.9308C13.1899 10.7488 13.3005 10.5834 13.4398 10.4441C13.5792 10.3048 13.7447 10.1944 13.9267 10.119C14.1088 10.0437 14.304 10.0049 14.501 10.005C14.899 10.0051 15.2806 10.1633 15.5619 10.4448C15.8432 10.7263 16.0011 11.108 16.001 11.506C16.0009 11.9039 15.8427 12.2855 15.5612 12.5669C15.2797 12.8482 14.898 13.0061 14.5 13.006Z"
      fill="currentColor"
    />
    </symbol>

    <symbol viewBox="0 0 312 261" fill="none" id="homepage-computer-image">
    <path
      d="M118.428 76.0204L91.1314 60.3895L118.19 44.7075H87.6702L103.237 18.1726L76.1106 33.7181V2.61004L60.6121 29.3838L44.8582 2.55884V33.7181L18.1068 18.2238L33.3666 44.7075H2.55737L29.786 60.3895L2.79608 76.0204H33.3666L17.7488 102.555L44.8582 87.1292V118.135L60.6121 91.6683L76.1106 118.169V87.1292L103.356 103.101L87.6702 76.0204H118.428Z"
      fill="#FF784B"
      stroke="#0D0D0D"
      stroke-width="0.5"
      stroke-linejoin="round"
    />
    <path
      d="M272.013 169.737L112.699 192.313L81.0719 40.5433L240.403 17.9673L272.013 169.737Z"
      fill="white"
      stroke="#0D0D0D"
      stroke-width="0.5"
      stroke-linecap="round"
      stroke-linejoin="round"
    />
    <path
      d="M249.609 126.583L116.364 145.473L96.8082 51.6022L230.053 32.7294L249.609 126.583Z"
      fill="#0D0D0D"
      stroke="#0D0D0D"
      stroke-width="0.5"
      stroke-linecap="round"
      stroke-linejoin="round"
    />
    <g style="mix-blend-mode:screen">
    <g style="mix-blend-mode:screen">
    <path
          d="M207.566 35.9202L174.609 137.214L228.459 129.647L241.246 86.1471L230.055 32.7294L207.566 35.9202Z"
          fill="white"
        />
    </g>
    </g>
    <path
      d="M272.031 169.721L230.752 222.159L71.4891 244.803L112.733 192.365L272.031 169.721Z"
      fill="#FF784B"
      stroke="#0D0D0D"
      stroke-width="0.5"
      stroke-linejoin="round"
    />
    <path
      d="M117.268 200.281L252.183 181.169L226.166 214.223L91.2838 233.335L117.268 200.281Z"
      fill="#FF784B"
      stroke="#0D0D0D"
      stroke-width="0.5"
      stroke-linejoin="round"
    />
    <path
      d="M81.0727 40.5269L39.8291 92.9654L71.4567 244.752L112.683 192.313L81.0727 40.5269Z"
      fill="#396AF4"
      stroke="#0D0D0D"
      stroke-width="0.5"
      stroke-linejoin="round"
    />
    <path
      d="M89.4235 113.954L59.1782 152.399L50.0911 108.715L80.3193 70.2865L89.4235 113.954Z"
      fill="#396AF4"
      stroke="#0D0D0D"
      stroke-width="0.5"
      stroke-linejoin="round"
    />
    <path
      d="M254.485 150.01L121.241 168.883"
      stroke="#0D0D0D"
      stroke-width="0.5"
      stroke-linecap="round"
      stroke-linejoin="round"
    />
    <path
      d="M135.495 161.563L120.168 163.747L118.429 155.369L133.739 153.201L135.495 161.563Z"
      fill="#396AF4"
      stroke="#0D0D0D"
      stroke-width="0.5"
      stroke-linecap="round"
      stroke-linejoin="round"
    />
    <path
      d="M155.922 158.68L140.611 160.864L138.872 152.468L154.166 150.301H154.2L155.922 158.68Z"
      fill="#396AF4"
      stroke="#0D0D0D"
      stroke-width="0.5"
      stroke-linecap="round"
      stroke-linejoin="round"
    />
    <path
      d="M249.609 126.583L116.364 145.473L96.8082 51.6022L230.053 32.7294L249.609 126.583Z"
      stroke="#0D0D0D"
      stroke-width="0.5"
      stroke-linecap="round"
      stroke-linejoin="round"
    />
    <path
      d="M251.946 68.1156C264.123 61.5868 272.969 54.3817 271.706 52.0224C270.443 49.6632 259.548 53.0434 247.373 59.5722C235.197 66.1008 226.35 73.306 227.613 75.6652C228.876 78.0244 239.77 74.6445 251.946 68.1156Z"
      fill="white"
      stroke="#0D0D0D"
      stroke-width="0.5"
      stroke-linecap="round"
      stroke-linejoin="round"
    />
    <path
      d="M242.448 91.1458C251.245 86.4284 257.638 81.2237 256.727 79.5206C255.814 77.8177 247.944 80.2616 239.146 84.9791C230.348 89.6965 223.955 94.9011 224.867 96.6043C225.778 98.3072 233.649 95.8633 242.448 91.1458Z"
      fill="white"
      stroke="#0D0D0D"
      stroke-width="0.5"
      stroke-linecap="round"
      stroke-linejoin="round"
    />
    <path
      d="M308.261 182.672C309.64 187.636 309.813 192.856 308.773 197.9C307.732 202.945 305.507 207.669 302.277 211.681C291.367 224.957 270.906 222.807 261.067 221.766C219.756 217.415 184.343 231.459 155.273 245.776C138.104 254.308 122.47 258.436 108.489 258.436C99.7712 258.533 91.1424 256.673 83.2378 252.994C57.3221 240.742 49.718 212.313 49.0362 209.599L35.6859 170.249L42.1819 168.048L55.5659 207.62C55.5757 207.728 55.5757 207.836 55.5659 207.944C55.5659 208.217 62.3862 235.759 86.1194 246.902C103.527 255.11 125.743 252.686 152.154 239.701C182.161 224.94 218.648 210.47 261.681 215.026C275.509 216.476 289.354 216.561 296.888 207.398C299.799 203.725 301.576 199.284 302.006 194.617C302.727 187.833 301.039 181.011 297.234 175.35C293.431 169.688 287.754 165.55 281.204 163.662C277.734 162.701 274.148 162.218 270.547 162.229L269.049 154.994C269.049 154.994 299.771 152.554 308.261 182.672Z"
      fill="#FFDF0D"
      stroke="#0D0D0D"
      stroke-width="0.5"
      stroke-linejoin="round"
    />
    <path
      d="M261.786 215.025C246.141 213.401 230.344 214.126 214.915 217.176C215.226 219.465 215.839 221.703 216.739 223.831C231.337 220.989 246.275 220.322 261.067 221.851L265.144 222.261C265.914 220.058 266.389 217.763 266.558 215.435C264.972 215.333 263.387 215.196 261.786 215.025Z"
      fill="#0D0D0D"
      stroke="#0D0D0D"
      stroke-width="0.5"
      stroke-linecap="round"
      stroke-linejoin="round"
    />
    <path
      d="M246.182 239.787C260.456 239.787 272.028 228.166 272.028 213.832C272.028 199.498 260.456 187.877 246.182 187.877C231.906 187.877 220.334 199.498 220.334 213.832C220.334 228.166 231.906 239.787 246.182 239.787Z"
      fill="#396AF4"
      stroke="#0D0D0D"
      stroke-width="0.5"
      stroke-linejoin="round"
    />
    <path
      d="M238.115 206.201C240.949 203.346 241.697 199.492 239.787 197.593C237.876 195.693 234.03 196.467 231.196 199.322C228.363 202.177 227.615 206.031 229.525 207.931C231.435 209.83 235.282 209.056 238.115 206.201Z"
      fill="white"
      stroke="#0D0D0D"
      stroke-width="0.5"
      stroke-linecap="round"
      stroke-linejoin="round"
    />
    <path
      d="M55.5467 208.251C55.5467 208.148 55.5469 208.046 55.4618 207.944L43.3567 172.109L36.9121 174.293L48.9489 209.923C49.0683 210.418 49.4261 211.732 50.057 213.643C52.2239 212.819 54.2892 211.749 56.2119 210.452C55.7687 209.138 55.5467 208.302 55.5467 208.251Z"
      fill="#0D0D0D"
      stroke="#0D0D0D"
      stroke-width="0.5"
      stroke-linecap="round"
      stroke-linejoin="round"
    />
    <path
      d="M65.5067 195.419L54.9698 164.277L22.899 175.147L33.4357 206.306C34.9532 210.811 43.3757 212.04 52.1905 209.036C61.0055 206.033 67.024 199.941 65.5067 195.419Z"
      fill="#FFDF0D"
      stroke="#0D0D0D"
      stroke-width="0.5"
      stroke-linejoin="round"
    />
    <path
      d="M41.5901 177.714C50.4445 174.708 56.3817 168.61 54.8511 164.094C53.3202 159.578 44.9011 158.354 36.0467 161.361C27.1923 164.367 21.2554 170.465 22.7861 174.981C24.3169 179.497 32.7357 180.721 41.5901 177.714Z"
      fill="white"
      stroke="#0D0D0D"
      stroke-width="0.5"
      stroke-linejoin="round"
    />
    <path
      d="M33.9735 173.399C36.1224 172.669 37.563 171.188 37.1909 170.091C36.8191 168.993 34.7752 168.695 32.6263 169.425C30.4773 170.154 29.0372 171.636 29.4091 172.733C29.7812 173.83 31.8245 174.128 33.9735 173.399Z"
      fill="#0D0D0D"
      stroke="#0D0D0D"
      stroke-width="0.5"
      stroke-linecap="round"
      stroke-linejoin="round"
    />
    <path
      d="M45.0122 169.659C47.1611 168.929 48.6017 167.448 48.2299 166.35C47.8578 165.253 45.8139 164.955 43.6649 165.685C41.5162 166.414 40.0759 167.895 40.4478 168.993C40.8199 170.09 42.8632 170.388 45.0122 169.659Z"
      fill="#0D0D0D"
      stroke="#0D0D0D"
      stroke-width="0.5"
      stroke-linecap="round"
      stroke-linejoin="round"
    />
    </symbol>

    <symbol viewBox="0 0 24 24" fill="none" id="top-right-arrow">
    <path
      d="M6 18L18 6"
      stroke="currentColor"
      stroke-width="2"
      stroke-linecap="round"
      stroke-linejoin="round"
    />
    <path
      d="M8.25 6H18V15.75"
      stroke="currentColor"
      stroke-width="2"
      stroke-linecap="round"
      stroke-linejoin="round"
    />
    </symbol>

    <symbol viewBox="0 0 42 22" fill="none" id="cruize-footer-icon">
    <path
      fill-rule="evenodd"
      clip-rule="evenodd"
      d="M14.2344 0.122478C11.5737 0.365963 8.38305 1.1341 6.23267 2.04892L5.71411 2.26947L6.34721 2.38953C6.69545 2.45568 7.38698 2.46137 7.88419 2.40226C8.77681 2.29609 8.79006 2.30112 8.96186 2.79964C9.17322 3.41304 8.95789 3.42275 11.026 2.7077C13.0312 2.01459 14.0134 1.90441 14.2933 2.34147C14.7048 2.98384 14.3641 3.21025 11.7084 4.05943C10.6379 4.40172 9.73002 4.73395 9.69112 4.79776C9.57973 4.97995 10.4929 7.99253 10.6597 7.99287C10.7418 7.99303 11.7235 7.61675 12.8412 7.15675C17.3605 5.29678 23.8727 3.37 27.8825 2.7067C28.88 2.54159 29.6249 2.38401 29.5376 2.35638C29.4504 2.32875 27.2039 1.81448 24.5452 1.21347C19.2586 0.0183187 17.4566 -0.172417 14.2344 0.122478ZM36.6618 2.58161C27.0081 3.43163 14.1447 7.3721 2.02757 13.1915L0 14.1652V16.1031C0 17.1688 0.0637236 18.0407 0.141682 18.0407C0.21964 18.0407 0.983165 17.6718 1.83822 17.2208C4.57999 15.7748 7.17545 15.0692 10.3447 14.9076C12.6719 14.789 14.4058 15.0214 18.124 15.9502C24.999 17.6676 29.4132 17.9448 33.6189 16.9231L34.7138 16.657L37.1775 11.871C38.5324 9.23876 40.1719 6.04599 40.8205 4.77599L42 2.46707L39.6619 2.4952C38.376 2.51077 37.0259 2.54962 36.6618 2.58161ZM23.0845 8.32259C24.0106 9.35782 22.5348 10.8509 21.5116 9.91395C21.1122 9.54839 21.0857 8.7178 21.46 8.29948C21.8268 7.88955 22.7083 7.9021 23.0845 8.32259ZM19.7325 9.76491C19.9738 10.3008 19.6184 11.1463 19.0961 11.2789C18.0942 11.5334 17.3239 10.7891 17.642 9.87393C17.9654 8.94336 19.3304 8.87219 19.7325 9.76491ZM15.9797 10.5813C17.0601 11.6741 15.5656 13.209 14.4519 12.1505C14.2413 11.9503 14.0689 11.6076 14.0689 11.3893C14.0689 10.8984 14.7609 10.1702 15.2275 10.1702C15.4178 10.1702 15.7563 10.3552 15.9797 10.5813ZM9.17985 15.8825C7.1963 16.0937 4.81536 16.7603 3.09895 17.5851C1.67668 18.2685 -0.490424 19.5626 0.248274 19.2875C5.70865 17.2528 10.8474 17.0154 16.4563 18.5384C17.4646 18.8122 18.8481 19.1912 19.5309 19.3806C26.1409 21.2137 33.3005 20.188 37.8618 16.7543C38.8476 16.0121 39.1912 15.5612 38.3727 16.084C37.6325 16.5567 34.925 17.5531 33.3983 17.9148C32.0748 18.2283 31.3686 18.279 28.3032 18.2814C24.2387 18.2845 22.8821 18.0913 17.7767 16.7821C15.1851 16.1176 11.944 15.6276 10.7585 15.7213C10.622 15.732 9.91159 15.8045 9.17985 15.8825ZM6.78615 18.8946C4.80509 19.077 2.79258 19.7078 1.22366 20.638C0.312329 21.1784 0.300908 21.2774 1.18691 20.9612C4.59919 19.7431 8.61858 19.7739 12.993 21.0515C16.8507 22.1783 20.039 22.2974 23.0895 21.4289L24.0826 21.1461L23.3377 21.0275C22.9281 20.9624 21.5129 20.8262 20.1929 20.7249C17.1241 20.4895 16.2394 20.3475 12.9102 19.5562C9.94983 18.8527 8.70316 18.7179 6.78615 18.8946ZM12.993 18.8809C13.715 19.1265 17.5713 19.9116 17.6526 19.8293C17.7632 19.7175 14.4057 18.9077 13.4068 18.8052C12.6549 18.728 12.5829 18.7412 12.993 18.8809Z"
      fill="white"
    />
    </symbol>

    <symbol viewBox="0 0 118 118" fill="none" id="wallet-connected-icon">
    <g filter="url(#filter0_d_948_4359)">
    <path
        d="M77.6002 42.6H38.8502V41.05L72.9502 38.322V41.05H77.6002V36.4C77.6002 32.99 74.8381 30.5968 71.4653 31.0773L40.3382 35.5227C36.9623 36.0063 34.2002 39.19 34.2002 42.6V73.6C34.2002 75.2443 34.8534 76.8213 36.0161 77.984C37.1789 79.1467 38.7559 79.8 40.4002 79.8H77.6002C79.2445 79.8 80.8215 79.1467 81.9843 77.984C83.147 76.8213 83.8002 75.2443 83.8002 73.6V48.8C83.8002 47.1556 83.147 45.5786 81.9843 44.4159C80.8215 43.2532 79.2445 42.6 77.6002 42.6V42.6ZM72.9502 64.3186C72.3393 64.3184 71.7345 64.1978 71.1702 63.9639C70.606 63.7299 70.0933 63.3871 69.6615 62.9551C69.2297 62.523 68.8873 62.0101 68.6537 61.4456C68.4201 60.8812 68.3 60.2763 68.3002 59.6655C68.3004 59.0546 68.4209 58.4498 68.6549 57.8855C68.8888 57.3212 69.2316 56.8086 69.6637 56.3768C70.0958 55.945 70.6087 55.6025 71.1731 55.3689C71.7375 55.1354 72.3424 55.0153 72.9533 55.0155C74.187 55.0159 75.3699 55.5063 76.242 56.379C77.114 57.2516 77.6037 58.4349 77.6033 59.6686C77.6029 60.9022 77.1124 62.0852 76.2398 62.9572C75.3672 63.8293 74.1839 64.319 72.9502 64.3186Z"
        fill="white"
        fill-opacity="0.8"
      />
    <rect
        x="17"
        y="13"
        width="84"
        height="84"
        rx="42"
        stroke="#71E39D"
        stroke-width="2"
      />
    </g>
    <defs>
    <filter
        id="filter0_d_948_4359"
        x="0"
        y="0"
        width="118"
        height="118"
        filterUnits="userSpaceOnUse"
        color-interpolation-filters="sRGB"
      >
    <feFlood flood-opacity="0" result="BackgroundImageFix" />
    <feColorMatrix
          in="SourceAlpha"
          type="matrix"
          values="0 0 0 0 0 0 0 0 0 0 0 0 0 0 0 0 0 0 127 0"
          result="hardAlpha"
        />
    <feOffset dy="4" />
    <feGaussianBlur stdDeviation="8" />
    <feColorMatrix
          type="matrix"
          values="0 0 0 0 0 0 0 0 0 0 0 0 0 0 0 0 0 0 0.12 0"
        />
    <feBlend
          mode="normal"
          in2="BackgroundImageFix"
          result="effect1_dropShadow_948_4359"
        />
    <feBlend
          mode="normal"
          in="SourceGraphic"
          in2="effect1_dropShadow_948_4359"
          result="shape"
        />
    </filter>
    </defs>
    </symbol>

    <symbol viewBox="0 0 20 20" fill="none" id="info-icon">
    <path
      d="M10 17.5C14.1421 17.5 17.5 14.1421 17.5 10C17.5 5.85786 14.1421 2.5 10 2.5C5.85786 2.5 2.5 5.85786 2.5 10C2.5 14.1421 5.85786 17.5 10 17.5Z"
      stroke="white"
      stroke-opacity="0.6"
      stroke-linecap="round"
      stroke-linejoin="round"
    />
    <path
      d="M9.375 9.375H10V13.75H10.625"
      stroke="white"
      stroke-opacity="0.6"
      stroke-linecap="round"
      stroke-linejoin="round"
    />
    <path
      d="M9.84375 7.1875C10.1889 7.1875 10.4688 6.90768 10.4688 6.5625C10.4688 6.21732 10.1889 5.9375 9.84375 5.9375C9.49857 5.9375 9.21875 6.21732 9.21875 6.5625C9.21875 6.90768 9.49857 7.1875 9.84375 7.1875Z"
      fill="white"
      fill-opacity="0.6"
    />
    </symbol>

    <symbol viewBox="0 0 17 27" fill="none" id="eth-asset-icon">
    <path
      d="M8.16703 0V9.81592C8.16703 9.85758 8.12536 9.89925 8.0837 9.89925C7.79202 10.0266 7.542 10.1528 7.25032 10.279C6.87531 10.4469 6.45862 10.616 6.08361 10.8267L4.70854 11.4577L3.58349 11.9636L2.20843 12.5958C1.83342 12.7649 1.4584 12.9327 1.04171 13.1434C0.750034 13.2696 0.416685 13.4387 0.125006 13.5649C0.0833371 13.5649 0.0833371 13.6066 0.0416685 13.5649H0C0.125006 13.3542 0.250011 13.1851 0.375017 12.9756C1.04171 11.8374 1.75008 10.7005 2.41678 9.56233C3.12514 8.34204 3.87517 7.11937 4.58354 5.89788C5.25024 4.76093 5.91693 3.62397 6.58363 2.52868C7.08365 1.6846 7.58367 0.885754 8.04203 0.0416685C8.12536 0.0416685 8.12536 0 8.16703 0C8.12536 0 8.16703 0 8.16703 0V0Z"
      fill="#8C8C8C"
    />
    <path
      d="M16.2504 13.565C15.6253 13.9864 14.9586 14.365 14.3336 14.7436C12.2919 15.9663 10.2918 17.1461 8.25001 18.3676C8.20834 18.3676 8.20834 18.4092 8.16667 18.4092C8.125 18.4092 8.125 18.3676 8.125 18.3676V9.89933C8.125 9.85767 8.16667 9.85767 8.20834 9.85767C8.37501 9.941 8.54169 10.0267 8.75003 10.1101C9.25005 10.3636 9.79174 10.5744 10.2918 10.8268C10.7501 11.0375 11.1668 11.2482 11.6252 11.4161C12.0835 11.6268 12.5002 11.8375 12.9586 12.0482C13.3336 12.2173 13.7503 12.3852 14.1253 12.5959C14.5003 12.7649 14.917 12.9328 15.292 13.1435C15.5837 13.2697 15.8753 13.4388 16.2087 13.565C16.2087 13.5233 16.2087 13.565 16.2504 13.565V13.565Z"
      fill="#141414"
    />
    <path
      d="M8.17224 26.6668C8.17224 26.6668 8.13057 26.6668 8.17224 26.6668C8.13057 26.6668 8.13057 26.6668 8.0889 26.6239C7.25553 25.4453 6.46383 24.3071 5.63046 23.1273L3.13035 19.5891C2.33864 18.4521 1.50527 17.3152 0.713572 16.1342L0.0885435 15.2496C0.0885435 15.2079 0.046875 15.2079 0.046875 15.1663C0.0885435 15.1663 0.0885435 15.2079 0.130212 15.2079C1.25526 15.8818 2.42198 16.5556 3.54703 17.2294C4.83876 18.0307 6.17215 18.789 7.46387 19.5891C7.67222 19.7153 7.92223 19.8415 8.13057 19.9677C8.17224 19.9677 8.17224 20.0105 8.17224 20.0522V26.6668Z"
      fill="#8C8C8C"
    />
    <path
      d="M0 13.1239C0 13.0822 0 13.0822 0 13.1239C0.416685 12.9132 0.833371 12.7453 1.25006 12.5346L2.87513 11.7762C3.29181 11.5655 3.7085 11.3976 4.12519 11.1869C4.70854 10.8917 5.33357 10.6393 5.91693 10.344C6.33362 10.175 6.7503 9.96423 7.16699 9.79637C7.45867 9.67017 7.75035 9.54398 8.04203 9.37492C8.0837 9.37492 8.0837 9.33325 8.12536 9.33325V17.9265C8.0837 17.9694 8.0837 17.9265 8.04203 17.9265C7.91702 17.8432 7.79202 17.8003 7.70868 17.7158L0.0833371 13.1668C0.0416685 13.1239 0 13.1239 0 13.1239ZM16.1257 14.6835C16.1257 14.7252 16.1257 14.7252 16.0841 14.7668C13.6673 18.2217 11.2505 21.6338 8.83373 25.0887C8.58372 25.4673 8.33371 25.8042 8.0837 26.184V19.4849C8.62539 19.148 9.16708 18.8111 9.70877 18.517L16.0841 14.7252C16.0841 14.6835 16.1257 14.6835 16.1257 14.6835V14.6835Z"
      fill="#3C3C3B"
    />
    <path
      d="M8.17188 9.85748V0.0439453L16.1722 13.4398C16.2139 13.4814 16.2556 13.5231 16.2556 13.566C16.0889 13.4826 15.9222 13.3969 15.7139 13.3136C15.5055 13.2291 15.2972 13.1029 15.0889 13.0183C14.9638 12.9767 14.8388 12.8921 14.6722 12.8493C14.4638 12.7659 14.2138 12.6386 14.0055 12.5552C13.8805 12.5124 13.7555 12.429 13.6305 12.3862L12.7554 12.0076C12.5887 11.923 12.4637 11.8814 12.2971 11.7969C12.0887 11.7123 11.8804 11.5861 11.672 11.5016C11.547 11.4599 11.422 11.3754 11.297 11.3337L10.422 10.954C10.2553 10.8706 10.1303 10.8278 9.96362 10.7432C9.75528 10.6599 9.54694 10.5325 9.33859 10.448C9.21359 10.3646 9.04691 10.3218 8.92191 10.2384L8.17188 9.85867V9.85748Z"
      fill="#343434"
    />
    </symbol>

    <symbol viewBox="0 0 12 7" fill="none" id="chevron-down">
    <path
      d="M10.375 1.25L6 5.625L1.625 1.25"
      stroke="white"
      stroke-width="2"
      stroke-linecap="round"
      stroke-linejoin="round"
    />
    </symbol>

    <symbol viewBox="0 0 59 59" fill="none" id="weth-asset-icon">
    <g clip-path="url(#clip0_303_25)">
    <path
        d="M29.4947 0L29.0989 1.34453V40.3562L29.4947 40.7511L47.6031 30.0471L29.4947 0Z"
        fill="#C84778"
      />
    <path
        d="M29.4947 0L11.3858 30.0471L29.4947 40.7511V21.8159V0Z"
        fill="#D986A7"
      />
    <path
        d="M29.4947 44.1797L29.2716 44.4518V58.3483L29.4947 58.9996L47.6142 33.4812L29.4947 44.1797Z"
        fill="#C94778"
      />
    <path
        d="M29.4947 58.9996V44.1797L11.3858 33.4812L29.4947 58.9996Z"
        fill="#DA86A8"
      />
    <path
        d="M29.4947 40.7511L47.6031 30.0471L29.4947 21.8159V40.7511Z"
        fill="#5E1B35"
      />
    <path
        d="M11.3858 30.0471L29.4947 40.7511V21.8159L11.3858 30.0471Z"
        fill="#C84779"
      />
    </g>
    <defs>
    <clipPath id="clip0_303_25">
    <rect width="59" height="59" fill="white" />
    </clipPath>
    </defs>
    </symbol>

    <symbol viewBox="0 0 560 560" fill="none" id="wbtc-asset-icon">
    <g clip-path="url(#clip0_402_10)">
    <path
        d="M456.621 117.525L441.245 132.901C477.935 173.024 498.281 225.426 498.281 279.795C498.281 334.164 477.935 386.565 441.245 426.689L456.621 442.065C497.424 397.806 520.078 339.813 520.078 279.616C520.078 219.418 497.424 161.425 456.621 117.166V117.525Z"
        fill="#5A5564"
      />
    <path
        d="M133.26 118.858C173.383 82.1677 225.784 61.8212 280.154 61.8212C334.523 61.8212 386.924 82.1677 427.047 118.858L442.424 103.482C398.165 62.6784 340.172 40.0248 279.974 40.0248C219.777 40.0248 161.784 62.6784 117.525 103.482L133.26 118.858Z"
        fill="#5A5564"
      />
    <path
        d="M118.858 426.842C82.2112 386.728 61.8914 334.359 61.8914 280.026C61.8914 225.692 82.2112 173.323 118.858 133.209L103.482 117.833C62.6784 162.091 40.0248 220.084 40.0248 280.282C40.0248 340.479 62.6784 398.472 103.482 442.731L118.858 426.842Z"
        fill="#5A5564"
      />
    <path
        d="M426.842 441.04C386.719 477.73 334.318 498.076 279.949 498.076C225.579 498.076 173.178 477.73 133.055 441.04L117.679 456.416C161.938 497.219 219.931 519.873 280.128 519.873C340.326 519.873 398.319 497.219 442.577 456.416L426.842 441.04Z"
        fill="#5A5564"
      />
    <path
        d="M377.075 228.695C374 196.61 346.323 185.847 311.316 182.566V138.385H284.254V181.746C277.13 181.746 269.852 181.746 262.625 181.746V138.385H235.768V182.874H180.875V211.832C180.875 211.832 200.864 211.474 200.556 211.832C204.161 211.436 207.778 212.454 210.646 214.672C213.515 216.89 215.41 220.135 215.933 223.723V345.502C215.856 346.768 215.526 348.005 214.962 349.141C214.399 350.276 213.613 351.287 212.652 352.114C211.709 352.957 210.606 353.6 209.408 354.005C208.21 354.41 206.943 354.569 205.682 354.472C206.041 354.779 186 354.472 186 354.472L180.875 386.813H235.255V432.019H262.317V387.479H283.947V431.814H311.06V387.121C356.778 384.353 388.658 373.077 392.656 330.28C395.885 295.837 379.689 280.461 353.806 274.26C369.541 266.52 379.279 252.169 377.075 228.695ZM339.147 324.95C339.147 358.572 281.538 354.728 263.189 354.728V295.069C281.538 295.12 339.147 289.841 339.147 324.95ZM326.59 240.893C326.59 271.646 278.514 267.904 263.24 267.904V213.677C278.514 213.677 326.59 208.86 326.59 240.893Z"
        fill="#F09242"
      />
    <path
        d="M279.949 560C224.574 559.99 170.446 543.561 124.408 512.79C78.3706 482.02 42.4902 438.289 21.304 387.128C0.117835 335.967 -5.42278 279.672 5.38272 225.362C16.1882 171.052 42.8546 121.166 82.0102 82.0102C121.166 42.8546 171.052 16.1882 225.362 5.38273C279.672 -5.42277 335.967 0.117843 387.128 21.304C438.289 42.4902 482.02 78.3706 512.79 124.408C543.561 170.446 559.99 224.574 560 279.949C560.007 316.728 552.768 353.147 538.696 387.128C524.625 421.108 503.997 451.984 477.99 477.99C451.984 503.997 421.108 524.625 387.128 538.696C353.147 552.768 316.728 560.007 279.949 560ZM279.949 21.8343C228.932 21.8748 179.072 37.0388 136.672 65.4096C94.2709 93.7805 61.2327 134.085 41.7328 181.228C22.2329 228.371 17.1466 280.237 27.1169 330.27C37.0872 380.303 61.6665 426.257 97.748 462.325C133.83 498.392 179.794 522.953 229.831 532.903C279.868 542.854 331.732 537.747 378.867 518.228C426.002 498.71 466.293 465.655 494.647 423.243C523.001 380.831 538.146 330.966 538.166 279.949C538.179 246.04 531.509 212.462 518.536 181.133C505.563 149.804 486.541 121.34 462.56 97.3679C438.578 73.3958 410.106 54.3858 378.772 41.4252C347.439 28.4645 313.857 21.8073 279.949 21.8343Z"
        fill="#282138"
      />
    </g>
    <defs>
    <clipPath id="clip0_402_10">
    <rect width="560" height="560" fill="white" />
    </clipPath>
    </defs>
    </symbol>

    <symbol viewBox="0 0 61 48" fill="none" id='protect-button-svg'>
    <path d="M0 0H12.5L27.5 48H19.5L0 0Z" fill="white" />
    <path
      d="M22 0.00585938H48.5L61.0002 47.9993H38.0002L22 0.00585938Z"
      fill="white"
    />
    </symbol>

    <symbol viewBox="0 0 192 151" fill="none" id="protect-rewards-info-icon">
    <path
      d="M134.961 131.268L24.0713 148.096L1.45312 34.0145L11.229 32.5637L112.421 17.4231L133.336 123.011L134.961 131.268Z"
      fill="#FF784B"
      stroke="#0D0D0D"
      stroke-width="0.3"
      stroke-linecap="round"
      stroke-linejoin="round"
    />
    <path
      fill-rule="evenodd"
      clip-rule="evenodd"
      d="M133.739 125.055L28.8596 141.259L7.28125 33.1496L11.2301 32.5633L112.422 17.4229L133.337 123.011L133.739 125.055Z"
      fill="#0D0D0D"
    />
    <path
      d="M133.738 125.055L133.804 125.485C133.922 125.467 134.027 125.402 134.095 125.305C134.163 125.208 134.189 125.087 134.166 124.971L133.738 125.055ZM28.8584 141.259L28.4305 141.344C28.4762 141.573 28.6943 141.725 28.9252 141.689L28.8584 141.259ZM7.28012 33.1494L7.21594 32.7185C7.0978 32.7359 6.99203 32.8009 6.92329 32.8985C6.85452 32.9961 6.82883 33.1174 6.85216 33.2345L7.28012 33.1494ZM11.229 32.5631L11.2931 32.994H11.2937L11.229 32.5631ZM112.421 17.4227L112.849 17.3382C112.804 17.1099 112.587 16.9574 112.356 16.9919L112.421 17.4227ZM133.336 123.011L133.764 122.927V122.926L133.336 123.011ZM133.671 124.624L28.7917 140.828L28.9252 141.689L133.804 125.485L133.671 124.624ZM29.2864 141.174L7.70807 33.064L6.85216 33.2345L28.4305 141.344L29.2864 141.174ZM7.34429 33.58L11.2931 32.994L11.1648 32.1325L7.21594 32.7185L7.34429 33.58ZM11.2937 32.994L112.486 17.8534L112.356 16.9919L11.1643 32.1325L11.2937 32.994ZM111.993 17.5072L132.908 123.095L133.764 122.926L112.849 17.3382L111.993 17.5072ZM132.907 123.095L133.31 125.139L134.166 124.971L133.764 122.927L132.907 123.095Z"
      fill="#0D0D0D"
    />
    <path
      d="M145.843 119.255L31.8162 136.458L8.53125 19.8646L122.639 2.90405L145.843 119.255Z"
      fill="#FFDF0D"
      stroke="#0D0D0D"
      stroke-width="0.3"
      stroke-linejoin="round"
    />
    <mask
      id="mask0_935_4215"
      style="mask-type:alpha"
      maskUnits="userSpaceOnUse"
      x="8"
      y="2"
      width="138"
      height="135"
    >
    <path
        d="M145.843 118.965L31.8162 136.169L8.53125 19.575L122.639 2.6145L145.843 118.965Z"
        fill="#FFDF0D"
      />
    </mask>
    <g mask="url(#mask0_935_4215)">
    <path
        d="M79.9979 128.931L135.271 37.4212L123.634 7.25952L42.1797 136.19L79.9979 128.931Z"
        fill="white"
      />
    <path
        d="M53.4258 82.3448L37.687 84.6905L34.6953 69.7792L50.4614 67.4065L53.4258 82.3448Z"
        fill="white"
        stroke="#0D0D0D"
        stroke-width="0.3"
        stroke-linecap="round"
        stroke-linejoin="round"
      />
    <path
        d="M59.3909 112.217L43.6519 114.536L40.6875 99.6245L56.4263 97.2788L59.3909 112.217Z"
        fill="white"
        stroke="#0D0D0D"
        stroke-width="0.3"
        stroke-linecap="round"
        stroke-linejoin="round"
      />
    <path
        d="M126.39 102.248L66.7222 111.092L63.7578 96.181L123.399 87.3364L126.39 102.248Z"
        stroke="#0D0D0D"
        stroke-width="0.3"
        stroke-linejoin="round"
      />
    <path
        d="M120.429 72.3713L60.7615 81.2426L57.7969 66.3583L117.438 57.4871L120.429 72.3713Z"
        stroke="#0D0D0D"
        stroke-width="0.3"
        stroke-linejoin="round"
      />
    <path
        d="M114.476 42.5686L54.8081 51.4129L51.8438 36.5016L111.484 27.6035L114.476 42.5686Z"
        stroke="#0D0D0D"
        stroke-width="0.3"
        stroke-linejoin="round"
      />
    <path
        d="M47.4804 52.5194L31.7414 54.8381L28.75 39.9269L44.5158 37.6082L47.4804 52.5194Z"
        fill="white"
        stroke="#0D0D0D"
        stroke-width="0.3"
        stroke-linecap="round"
        stroke-linejoin="round"
      />
    </g>
    <path
      fill-rule="evenodd"
      clip-rule="evenodd"
      d="M132.227 27.5525C125.552 30.5169 119.881 35.3562 115.9 41.4827C111.92 47.609 109.803 54.7597 109.805 62.0666C109.857 71.9142 113.731 81.3563 120.61 88.3999C127.489 95.4434 136.834 99.537 146.673 99.8166L132.227 27.5525Z"
      fill="#0D0D0D"
      stroke="#0D0D0D"
      stroke-width="0.3"
      stroke-linecap="round"
      stroke-linejoin="round"
    />
    <path
      fill-rule="evenodd"
      clip-rule="evenodd"
      d="M152.55 18.1151C162.586 18.1006 172.219 22.0645 179.341 29.1394C186.463 36.2143 190.493 45.824 190.55 55.8652C190.529 65.9319 186.515 75.5788 179.39 82.6871C172.265 89.7955 162.612 93.7839 152.55 93.7766C142.484 93.7909 132.824 89.8059 125.693 82.6967C118.562 75.5875 114.545 65.9366 114.523 55.8652C114.58 45.8193 118.614 36.2056 125.742 29.1298C132.87 22.0542 142.509 18.0935 152.55 18.1151Z"
      fill="white"
      stroke="#0D0D0D"
      stroke-width="0.3"
      stroke-linecap="round"
      stroke-linejoin="round"
    />
    <path
      d="M152.543 27.201C156.33 27.194 160.081 27.933 163.582 29.3765C167.084 30.8197 170.266 32.939 172.949 35.6131C175.632 38.2873 177.762 41.4641 179.217 44.9618C180.673 48.4597 181.426 52.2098 181.433 55.9987C181.429 59.79 180.68 63.5432 179.225 67.0441C177.771 70.5449 175.642 73.7246 172.959 76.4017C170.275 79.0788 167.091 81.2003 163.588 82.6453C160.085 84.0905 156.332 84.8307 152.543 84.8237C148.751 84.8345 144.995 84.0969 141.489 82.6534C137.983 81.2099 134.795 79.0886 132.109 76.4113C129.423 73.7339 127.291 70.5531 125.835 67.0504C124.38 63.5478 123.628 59.792 123.625 55.9987C123.632 52.2074 124.386 48.4551 125.843 44.9557C127.301 41.4559 129.433 38.2783 132.119 35.6038C134.804 32.9291 137.99 30.8107 141.495 29.369C145 27.927 148.753 27.1904 152.543 27.201Z"
      fill="#044BCA"
      stroke="#0D0D0D"
      stroke-width="0.3"
      stroke-linecap="round"
      stroke-linejoin="round"
    />
    <path
      d="M170.437 43.9688V54.2188C170.438 54.4717 170.364 54.7192 170.224 54.9301C170.085 55.141 169.886 55.3059 169.652 55.4039C169.494 55.4667 169.326 55.4993 169.156 55.5C168.816 55.4986 168.489 55.3667 168.243 55.1316L164.031 50.9035L154.694 60.2566C154.451 60.4972 154.123 60.6322 153.781 60.6322C153.439 60.6322 153.111 60.4972 152.868 60.2566L147.375 54.7473L136.756 65.3816C136.51 65.6167 136.184 65.7486 135.843 65.75C135.504 65.7454 135.178 65.614 134.93 65.3816C134.69 65.1387 134.555 64.8106 134.555 64.4688C134.555 64.1269 134.69 63.7988 134.93 63.5559L146.462 52.0246C146.705 51.784 147.033 51.649 147.375 51.649C147.717 51.649 148.045 51.784 148.288 52.0246L153.781 57.534L162.221 49.0938L157.993 44.8816C157.819 44.6964 157.701 44.4657 157.653 44.2163C157.605 43.9669 157.628 43.7089 157.721 43.4723C157.82 43.2403 157.986 43.0425 158.196 42.9031C158.407 42.7637 158.653 42.6888 158.906 42.6875H169.156C169.496 42.6875 169.822 42.8225 170.062 43.0628C170.302 43.3031 170.437 43.6289 170.437 43.9688Z"
      fill="white"
    />
    </symbol>

    <symbol viewBox="0 0 24 24" fill="none" id="hamburger-icon">
    <path
      d="M3 12H21M3 6H21M3 18H21"
      stroke="white"
      stroke-width="2"
      stroke-linecap="round"
      stroke-linejoin="round"
    />
    </symbol>

    <symbol viewBox="0 0 42 42" fill="none" id="no-notifications-icon">
    <g filter="url(#filter0_b_1046_4375)">
    <rect width="42" height="42" rx="21" fill="white" fill-opacity="0.067" />
    <path
        d="M15.3905 19.75C15.3884 19.0121 15.532 18.2809 15.8129 17.5986C16.0939 16.9162 16.5068 16.2959 17.0279 15.7734C17.549 15.2508 18.168 14.8363 18.8496 14.5534C19.5312 14.2705 20.2619 14.1249 20.9999 14.1249C21.7379 14.1249 22.4686 14.2705 23.1502 14.5534C23.8318 14.8363 24.4508 15.2508 24.9719 15.7734C25.493 16.2959 25.9059 16.9162 26.1869 17.5986C26.4678 18.2809 26.6114 19.0121 26.6094 19.75V19.75C26.6094 22.5481 27.1948 24.1718 27.7104 25.0592C27.7659 25.1541 27.7955 25.2619 27.7961 25.3718C27.7966 25.4816 27.7682 25.5897 27.7137 25.6852C27.6592 25.7806 27.5805 25.8599 27.4855 25.9152C27.3905 25.9705 27.2826 25.9997 27.1727 26H14.8264C14.7165 25.9997 14.6087 25.9705 14.5137 25.9152C14.4187 25.8599 14.34 25.7805 14.2854 25.6851C14.2309 25.5897 14.2025 25.4815 14.2031 25.3716C14.2037 25.2617 14.2333 25.1539 14.2889 25.0591C14.8048 24.1716 15.3905 22.548 15.3905 19.75H15.3905Z"
        stroke="#B3B3B3"
        stroke-width="1.5"
        stroke-linecap="round"
        stroke-linejoin="round"
      />
    <path
        d="M18.5 26V26.625C18.5 27.288 18.7634 27.9239 19.2322 28.3928C19.7011 28.8616 20.337 29.125 21 29.125C21.663 29.125 22.2989 28.8616 22.7678 28.3928C23.2366 27.9239 23.5 27.288 23.5 26.625V26"
        stroke="#B3B3B3"
        stroke-width="1.5"
        stroke-linecap="round"
        stroke-linejoin="round"
      />
    <path
        d="M25.3311 12.8741C26.6028 13.6769 27.628 14.8156 28.2934 16.1644"
        stroke="#B3B3B3"
        stroke-width="1.5"
        stroke-linecap="round"
        stroke-linejoin="round"
      />
    <path
        d="M13.707 16.1644C14.3725 14.8156 15.3976 13.6769 16.6694 12.8741"
        stroke="#B3B3B3"
        stroke-width="1.5"
        stroke-linecap="round"
        stroke-linejoin="round"
      />
    </g>
    <defs>
    <filter
        id="filter0_b_1046_4375"
        x="-4"
        y="-4"
        width="50"
        height="50"
        filterUnits="userSpaceOnUse"
        color-interpolation-filters="sRGB"
      >
    <feFlood flood-opacity="0" result="BackgroundImageFix" />
    <feGaussianBlur in="BackgroundImage" stdDeviation="2" />
    <feComposite
          in2="SourceAlpha"
          operator="in"
          result="effect1_backgroundBlur_1046_4375"
        />
    <feBlend
          mode="normal"
          in="SourceGraphic"
          in2="effect1_backgroundBlur_1046_4375"
          result="shape"
        />
    </filter>
    </defs>
    </symbol>

    <symbol viewBox="0 0 42 42" fill="none" id="notifications-icon">
    <g filter="url(#filter0_b_1046_4374)">
    <rect width="42" height="42" rx="21" fill="white" fill-opacity="0.067" />
    <path
        d="M15.3905 19.75C15.3884 19.0121 15.532 18.2809 15.8129 17.5986C16.0939 16.9162 16.5068 16.2959 17.0279 15.7734C17.549 15.2508 18.168 14.8363 18.8496 14.5534C19.5312 14.2705 20.2619 14.1249 20.9999 14.1249C21.7379 14.1249 22.4686 14.2705 23.1502 14.5534C23.8318 14.8363 24.4508 15.2508 24.9719 15.7734C25.493 16.2959 25.9059 16.9162 26.1869 17.5986C26.4678 18.2809 26.6114 19.0121 26.6094 19.75V19.75C26.6094 22.5481 27.1948 24.1718 27.7104 25.0592C27.7659 25.1541 27.7955 25.2619 27.7961 25.3718C27.7966 25.4816 27.7682 25.5897 27.7137 25.6852C27.6592 25.7806 27.5805 25.8599 27.4855 25.9152C27.3905 25.9705 27.2826 25.9997 27.1727 26H14.8264C14.7165 25.9997 14.6087 25.9705 14.5137 25.9152C14.4187 25.8599 14.34 25.7805 14.2854 25.6851C14.2309 25.5897 14.2025 25.4815 14.2031 25.3716C14.2037 25.2617 14.2333 25.1539 14.2889 25.0591C14.8048 24.1716 15.3905 22.548 15.3905 19.75H15.3905Z"
        stroke="#B3B3B3"
        stroke-width="1.5"
        stroke-linecap="round"
        stroke-linejoin="round"
      />
    <path
        d="M18.5 26V26.625C18.5 27.288 18.7634 27.9239 19.2322 28.3928C19.7011 28.8616 20.337 29.125 21 29.125C21.663 29.125 22.2989 28.8616 22.7678 28.3928C23.2366 27.9239 23.5 27.288 23.5 26.625V26"
        stroke="#B3B3B3"
        stroke-width="1.5"
        stroke-linecap="round"
        stroke-linejoin="round"
      />
    <path
        d="M25.3311 12.8741C26.6028 13.6769 27.628 14.8156 28.2934 16.1644"
        stroke="#B3B3B3"
        stroke-width="1.5"
        stroke-linecap="round"
        stroke-linejoin="round"
      />
    <path
        d="M13.707 16.1644C14.3725 14.8156 15.3976 13.6769 16.6694 12.8741"
        stroke="#B3B3B3"
        stroke-width="1.5"
        stroke-linecap="round"
        stroke-linejoin="round"
      />
    <ellipse cx="34.7531" cy="6.6521" rx="2.8" ry="3" fill="#D9523D" />
    </g>
    <defs>
    <filter
        id="filter0_b_1046_4374"
        x="-4"
        y="-4"
        width="50"
        height="50"
        filterUnits="userSpaceOnUse"
        color-interpolation-filters="sRGB"
      >
    <feFlood flood-opacity="0" result="BackgroundImageFix" />
    <feGaussianBlur in="BackgroundImage" stdDeviation="2" />
    <feComposite
          in2="SourceAlpha"
          operator="in"
          result="effect1_backgroundBlur_1046_4374"
        />
    <feBlend
          mode="normal"
          in="SourceGraphic"
          in2="effect1_backgroundBlur_1046_4374"
          result="shape"
        />
    </filter>
    </defs>
    </symbol>


</svg>
